<svg width="1025" height="786" viewBox="0 0 1025 786" fill="none" xmlns="http://www.w3.org/2000/svg">
<path d="M96.5421 135.846C120.432 121.174 129.32 92.2218 116.393 71.1799C103.467 50.138 73.6203 44.9743 49.73 59.6465C25.8396 74.3187 16.9519 103.271 29.8787 124.313C42.8055 145.354 72.6517 150.518 96.5421 135.846Z" fill="white"/>
<path d="M168.534 49.4181C179.706 42.5569 183.803 28.9224 177.686 18.9647C171.569 9.00698 157.553 6.49676 146.381 13.358C135.209 20.2192 131.111 33.8536 137.229 43.8113C143.346 53.769 157.362 56.2793 168.534 49.4181Z" fill="white"/>
<path d="M939.255 723.239C997.551 680.811 1011.54 583.973 991.753 515.646C974.612 456.458 939.956 402.357 941.893 338.604C943.634 280.791 973.176 241.031 976.127 183.553C982.003 69.198 870.564 -24.7892 740.692 21.6212C682.966 42.25 629.566 82.7764 570.352 93.8655C487.297 109.398 428.039 50.001 348.911 47.4725C279.868 45.2965 210.559 69.1197 154.483 121.414C110.381 162.537 77.2347 219.018 59.7759 280.247C44.5413 333.682 52.3153 388.753 72.1637 437.017L939.255 723.239Z" fill="white"/>
<path d="M338.347 401.979L72.1641 437.017C114.042 547.29 255.083 685.059 441.859 746.714C628.635 808.37 851.887 786.296 939.255 723.239L935.817 650.603L338.347 401.979Z" fill="white"/>
<path d="M47.1208 721.264C17.2306 688.45 0.0154849 643.188 0.137362 597.709C0.185242 580.366 2.81429 562.562 11.2064 547.63C19.5984 532.698 34.537 521.082 51.0208 520.591C74.2035 519.886 92.7244 539.709 108.068 558.018L138.798 594.65C153.837 612.58 173.311 625.597 194.892 633.113C211.389 638.858 226.297 647.653 234.885 663.09C247.638 686.026 240.752 716.934 223.864 736.697C213.656 748.639 201.02 759.419 186.482 764.741C172.597 769.825 148.814 774.808 120.103 768.323C106.888 765.333 94.7267 758.366 83.0788 751.141C69.7695 742.891 57.6683 732.837 47.1208 721.264Z" fill="white"/>
<path d="M527.063 748.403C767.208 748.403 961.884 734.218 961.884 716.72C961.884 699.222 767.208 685.037 527.063 685.037C286.918 685.037 92.2422 699.222 92.2422 716.72C92.2422 734.218 286.918 748.403 527.063 748.403Z" fill="#FFD54F"/>
<path d="M512.228 184.162C512.226 191.203 510.409 198.125 506.953 204.259C503.497 210.394 498.518 215.535 492.496 219.186C486.475 222.837 479.614 224.874 472.575 225.103C465.537 225.331 458.558 223.742 452.313 220.488C452.226 220.445 452.152 220.397 452.06 220.354C449.941 219.232 447.928 217.921 446.045 216.437C444.079 214.908 442.262 213.196 440.621 211.323C440.561 211.263 440.506 211.199 440.456 211.132C437.113 207.344 434.509 202.965 432.778 198.219C432.673 197.94 432.569 197.64 432.477 197.349C431.022 193.108 430.287 188.654 430.301 184.17C430.306 173.304 434.625 162.883 442.31 155.199C449.996 147.515 460.418 143.196 471.286 143.191C472.856 143.189 474.425 143.283 475.983 143.474C476.292 143.505 476.592 143.535 476.901 143.579C481.913 144.252 486.751 145.877 491.152 148.366C491.229 148.4 491.303 148.439 491.374 148.484C493.553 149.696 495.613 151.109 497.529 152.705C499.375 154.235 501.072 155.937 502.596 157.788L502.774 158.01C508.902 165.345 512.249 174.604 512.228 184.162Z" fill="#FFD54F"/>
<path d="M472.872 216.25C466.983 216.254 461.187 214.781 456.014 211.967C450.841 209.152 446.456 205.086 443.261 200.139C440.066 195.193 438.162 189.525 437.724 183.653C437.286 177.781 438.328 171.893 440.753 166.527C438.37 170.661 436.85 175.235 436.288 179.973C435.726 184.711 436.133 189.514 437.483 194.091C438.833 198.667 441.099 202.921 444.144 206.596C447.188 210.27 450.947 213.287 455.193 215.465C459.439 217.643 464.083 218.936 468.844 219.265C473.605 219.594 478.383 218.953 482.888 217.38C487.393 215.807 491.532 213.335 495.053 210.115C498.574 206.895 501.404 202.993 503.372 198.646C500.281 203.999 495.836 208.444 490.482 211.535C485.128 214.625 479.054 216.251 472.872 216.25Z" fill="#FFD54F"/>
<path d="M468.505 209.566V203.513H468.379C461.671 202.642 457.528 198.791 456.992 192.937H465.01C465.746 196.023 468.214 197.859 471.626 197.859C476.727 197.859 477.489 195 477.489 193.294C477.489 190.248 475.84 188.872 470.429 187.327C459.922 184.281 457.767 180.403 457.767 175.472C457.767 169.941 461.684 165.898 468.022 164.866H468.144V158.773H473.937V164.81H474.068C481.994 165.85 484.188 170.737 484.615 174.719H476.584C476.179 173.17 475.369 170.463 470.812 170.463C466.255 170.463 465.837 173.653 465.837 174.632C465.837 177.352 467.43 178.51 473.589 180.247C482.173 182.636 485.516 186.017 485.516 192.302C485.516 198.586 481.598 202.568 474.473 203.478H474.347V209.532L468.505 209.566Z" fill="white"/>
<path d="M471.253 220.504C464.063 220.505 457.033 218.375 451.053 214.381C445.073 210.388 440.412 204.711 437.66 198.069C434.907 191.427 434.186 184.118 435.589 177.066C436.991 170.014 440.454 163.537 445.539 158.453C450.623 153.369 457.102 149.907 464.155 148.505C471.207 147.102 478.518 147.823 485.161 150.575C491.804 153.327 497.482 157.988 501.476 163.966C505.47 169.945 507.6 176.974 507.599 184.164C507.61 189.318 506.513 194.415 504.382 199.109C501.499 205.48 496.842 210.886 490.967 214.681C485.092 218.475 478.248 220.496 471.253 220.504ZM471.253 150.035C465.119 150.033 459.097 151.685 453.822 154.817C448.547 157.949 444.214 162.444 441.278 167.831C438.343 173.217 436.915 179.295 437.143 185.425C437.371 191.554 439.248 197.509 442.576 202.662C445.903 207.815 450.559 211.976 456.052 214.707C461.545 217.438 467.673 218.638 473.791 218.18C479.909 217.722 485.79 215.624 490.816 212.107C495.841 208.589 499.826 203.781 502.349 198.19C504.351 193.786 505.381 189.002 505.37 184.164C505.362 175.118 501.766 166.444 495.37 160.046C488.974 153.648 480.301 150.048 471.253 150.035Z" fill="white"/>
<g opacity="0.2">
<path d="M491.127 148.358L440.44 211.128C437.097 207.34 434.492 202.961 432.761 198.215C432.657 197.937 432.552 197.636 432.461 197.345L475.958 143.471C476.267 143.501 476.567 143.532 476.876 143.575C481.888 144.247 486.725 145.87 491.127 148.358Z" fill="white"/>
<path d="M502.763 157.999L452.315 220.49C452.228 220.446 452.154 220.399 452.062 220.355C449.943 219.234 447.93 217.923 446.047 216.438L497.518 152.711C499.364 154.241 501.061 155.943 502.585 157.794L502.763 157.999Z" fill="white"/>
</g>
<path d="M615.225 209.935C615.226 216.978 613.411 223.902 609.956 230.039C606.501 236.176 601.522 241.319 595.5 244.972C589.478 248.625 582.616 250.665 575.576 250.894C568.536 251.122 561.556 249.533 555.309 246.28L555.057 246.145C552.936 245.023 550.921 243.712 549.037 242.228C547.071 240.701 545.255 238.99 543.614 237.118C543.555 237.056 543.499 236.991 543.448 236.923C540.106 233.134 537.5 228.755 535.766 224.01C535.661 223.731 535.561 223.431 535.47 223.14C534.015 218.899 533.279 214.445 533.293 209.962C533.298 199.095 537.617 188.674 545.303 180.99C552.988 173.306 563.41 168.987 574.279 168.982C575.848 168.98 577.417 169.074 578.975 169.265C579.284 169.296 579.58 169.326 579.894 169.37C584.906 170.043 589.743 171.668 594.144 174.157C594.221 174.191 594.295 174.23 594.366 174.275C596.545 175.487 598.606 176.9 600.521 178.496C602.368 180.026 604.064 181.728 605.588 183.579L605.766 183.801C611.892 191.131 615.241 200.384 615.225 209.935Z" fill="#FFD54F"/>
<path d="M575.868 242.011C569.982 242.012 564.191 240.538 559.021 237.725C553.852 234.912 549.47 230.848 546.277 225.906C543.083 220.963 541.178 215.299 540.737 209.431C540.297 203.563 541.333 197.679 543.753 192.314C541.37 196.448 539.85 201.022 539.288 205.76C538.726 210.499 539.133 215.301 540.483 219.878C541.833 224.454 544.099 228.708 547.144 232.383C550.188 236.057 553.947 239.075 558.193 241.252C562.439 243.43 567.083 244.723 571.844 245.052C576.605 245.381 581.383 244.74 585.888 243.167C590.393 241.594 594.532 239.122 598.053 235.902C601.574 232.682 604.404 228.78 606.372 224.433C603.278 229.783 598.831 234.224 593.476 237.309C588.121 240.395 582.048 242.017 575.868 242.011Z" fill="#FFD54F"/>
<path d="M571.502 235.338V229.306H571.375C564.668 228.436 560.524 224.58 559.984 218.726H568.006C568.742 221.812 571.21 223.649 574.623 223.649C579.724 223.649 580.486 220.789 580.486 219.083C580.486 216.037 578.836 214.662 573.426 213.117C562.918 210.07 560.763 206.193 560.763 201.266C560.763 195.73 564.681 191.665 571.019 190.656L571.14 190.634V184.541H576.934V190.573H577.065C584.991 191.617 587.185 196.5 587.611 200.483H579.58C579.176 198.933 578.366 196.226 573.809 196.226C569.251 196.226 568.829 199.416 568.829 200.396C568.829 203.116 570.427 204.273 576.586 206.01C585.165 208.399 588.512 211.781 588.512 218.065C588.512 224.349 584.595 228.336 577.469 229.241H577.339V235.295L571.502 235.338Z" fill="white"/>
<path d="M574.246 246.281C567.055 246.283 560.025 244.152 554.045 240.159C548.065 236.165 543.404 230.489 540.652 223.846C537.899 217.204 537.178 209.895 538.581 202.843C539.983 195.792 543.446 189.314 548.531 184.23C553.615 179.146 560.094 175.684 567.147 174.282C574.2 172.88 581.51 173.6 588.153 176.353C594.796 179.105 600.474 183.765 604.468 189.744C608.462 195.723 610.593 202.751 610.591 209.941C610.602 215.096 609.506 220.193 607.374 224.886C604.492 231.258 599.834 236.664 593.959 240.458C588.084 244.252 581.24 246.274 574.246 246.281ZM574.246 175.812C568.111 175.811 562.089 177.463 556.814 180.594C551.539 183.726 547.206 188.222 544.271 193.608C541.336 198.994 539.907 205.072 540.135 211.202C540.363 217.332 542.24 223.286 545.568 228.44C548.895 233.593 553.551 237.754 559.044 240.485C564.537 243.215 570.666 244.415 576.783 243.958C582.901 243.5 588.782 241.402 593.808 237.884C598.834 234.366 602.818 229.559 605.342 223.968C607.343 219.563 608.373 214.779 608.362 209.941C608.355 200.894 604.759 192.22 598.363 185.821C591.967 179.422 583.294 175.821 574.246 175.808V175.812Z" fill="white"/>
<g opacity="0.2">
<path d="M594.119 174.114L543.432 236.901C540.089 233.112 537.484 228.733 535.749 223.988C535.645 223.71 535.545 223.41 535.453 223.118L578.95 169.248C579.259 169.279 579.555 169.309 579.868 169.352C584.879 170.017 589.716 171.633 594.119 174.114Z" fill="white"/>
<path d="M605.752 183.77L555.304 246.279L555.051 246.144C552.93 245.023 550.916 243.712 549.031 242.227L600.494 178.465C602.34 179.995 604.037 181.697 605.56 183.548L605.752 183.77Z" fill="white"/>
</g>
<path d="M661.611 127.634C661.609 134.675 659.793 141.597 656.336 147.731C652.88 153.866 647.901 159.007 641.879 162.658C635.858 166.309 628.997 168.346 621.958 168.575C614.92 168.803 607.941 167.214 601.696 163.96C601.605 163.917 601.531 163.873 601.444 163.825C599.322 162.705 597.307 161.394 595.424 159.909C593.456 158.383 591.64 156.672 590 154.799C589.94 154.738 589.885 154.673 589.835 154.603C586.492 150.817 583.887 146.439 582.152 141.695C582.048 141.412 581.943 141.116 581.856 140.825C580.401 136.584 579.666 132.13 579.68 127.647C579.685 116.78 584.004 106.36 591.69 98.6768C599.375 90.9935 609.797 86.6755 620.665 86.6721C622.234 86.6668 623.801 86.7613 625.357 86.955C625.671 86.9811 625.967 87.0115 626.28 87.0594C631.29 87.7289 636.126 89.3462 640.531 91.8249C640.609 91.8588 640.683 91.8995 640.753 91.9468C642.93 93.1577 644.989 94.5695 646.904 96.1639C648.748 97.6945 650.444 99.3949 651.97 101.243L652.149 101.465C658.284 108.803 661.634 118.069 661.611 127.634Z" fill="#FFD54F"/>
<path d="M622.262 159.712C616.375 159.712 610.582 158.238 605.412 155.423C600.242 152.608 595.86 148.543 592.666 143.598C589.472 138.654 587.569 132.988 587.13 127.118C586.69 121.249 587.729 115.363 590.152 109.998C587.757 114.132 586.228 118.71 585.658 123.454C585.088 128.197 585.489 133.007 586.836 137.591C588.184 142.174 590.45 146.436 593.496 150.117C596.542 153.797 600.306 156.82 604.557 159.001C608.808 161.182 613.459 162.475 618.226 162.803C622.993 163.13 627.777 162.485 632.287 160.906C636.797 159.327 640.938 156.848 644.459 153.618C647.981 150.389 650.808 146.477 652.77 142.121C649.676 147.472 645.228 151.915 639.873 155.003C634.518 158.091 628.444 159.715 622.262 159.712Z" fill="#FFD54F"/>
<path d="M617.908 153.037V146.988H617.777C611.07 146.117 606.93 142.261 606.391 136.408H614.413C615.148 139.498 617.612 141.334 621.029 141.334C626.13 141.334 626.888 138.471 626.888 136.769C626.888 133.722 625.242 132.343 619.832 130.802C609.32 127.778 607.165 123.874 607.165 118.947C607.165 113.411 611.083 109.347 617.42 108.341L617.547 108.319V102.227H623.34V108.289H623.471C631.397 109.333 633.591 114.216 634.013 118.203H625.987C625.582 116.649 624.772 113.942 620.215 113.942C615.658 113.942 615.235 117.132 615.235 118.112C615.235 120.836 616.828 121.989 622.992 123.726C631.571 126.115 634.914 129.497 634.914 135.785C634.914 142.074 630.997 146.052 623.876 146.961H623.745V153.011L617.908 153.037Z" fill="white"/>
<path d="M620.632 163.978C612.784 163.98 605.146 161.442 598.86 156.745C592.574 152.047 587.976 145.442 585.756 137.916C583.535 130.39 583.809 122.347 586.538 114.99C589.267 107.633 594.304 101.357 600.896 97.0985C607.488 92.8404 615.281 90.8296 623.111 91.3665C630.941 91.9033 638.386 94.9591 644.335 100.077C650.284 105.195 654.417 112.1 656.116 119.761C657.815 127.422 656.988 135.427 653.761 142.579C650.88 148.952 646.223 154.36 640.347 158.155C634.472 161.951 627.627 163.972 620.632 163.978ZM620.632 93.5095C614.497 93.5076 608.475 95.1595 603.199 98.2912C597.924 101.423 593.591 105.919 590.655 111.305C587.72 116.692 586.291 122.77 586.52 128.9C586.748 135.03 588.625 140.985 591.953 146.138C595.281 151.291 599.937 155.452 605.431 158.183C610.924 160.914 617.053 162.113 623.171 161.655C629.289 161.196 635.17 159.097 640.196 155.579C645.221 152.06 649.205 147.252 651.728 141.661C653.729 137.256 654.76 132.472 654.749 127.634C654.737 118.591 651.139 109.921 644.743 103.526C638.348 97.1317 629.677 93.5341 620.632 93.5226V93.5095Z" fill="white"/>
<g opacity="0.2">
<path d="M640.506 91.8124L589.818 154.6C586.476 150.813 583.87 146.435 582.136 141.691C582.031 141.409 581.927 141.113 581.84 140.821L625.332 86.9512C625.646 86.9773 625.942 87.0078 626.255 87.0556C631.264 87.7224 636.101 89.3368 640.506 91.8124Z" fill="white"/>
<path d="M652.138 101.471L601.69 163.962C601.599 163.919 601.525 163.875 601.438 163.827C599.316 162.707 597.301 161.396 595.418 159.91L646.893 96.1699C648.738 97.7005 650.434 99.4009 651.96 101.249L652.138 101.471Z" fill="white"/>
</g>
<path d="M506.009 604.594H547.756H589.507L599.876 695.787H547.756H495.641L506.009 604.594Z" fill="#FAB417"/>
<path d="M424.174 692.424H671.34C676.022 692.424 680.512 694.284 683.823 697.594C687.134 700.904 688.994 705.394 688.994 710.076H406.523C406.523 707.758 406.979 705.463 407.866 703.321C408.753 701.179 410.053 699.233 411.692 697.594C413.331 695.955 415.277 694.655 417.418 693.768C419.56 692.88 421.856 692.424 424.174 692.424Z" fill="#FFD54F"/>
<path d="M807.288 275.104H288.224C276.269 275.104 266.578 284.793 266.578 296.746V606.457C266.578 618.41 276.269 628.099 288.224 628.099H807.288C819.243 628.099 828.934 618.41 828.934 606.457V296.746C828.934 284.793 819.243 275.104 807.288 275.104Z" fill="#FFD54F"/>
<path d="M266.578 296.764V581.11H828.952V296.764C828.951 291.024 826.67 285.52 822.61 281.461C818.551 277.403 813.046 275.122 807.306 275.121H288.224C282.484 275.122 276.979 277.403 272.919 281.461C268.86 285.52 266.579 291.024 266.578 296.764Z" fill="#FAB417"/>
<path d="M812.121 564.28V291.91L283.386 291.91V564.28H812.121Z" fill="white"/>
<path d="M549.568 615.551C555.64 614.566 559.764 608.845 558.778 602.774C557.792 596.702 552.071 592.58 545.999 593.565C539.926 594.551 535.803 600.271 536.789 606.343C537.774 612.414 543.496 616.537 549.568 615.551Z" fill="white"/>
<path d="M803.891 556.05V300.145L291.626 300.145V556.05H803.891Z" fill="white"/>
<path d="M721.542 312.166H313.077C311.322 312.166 309.64 312.863 308.399 314.104C307.158 315.344 306.461 317.027 306.461 318.781C306.461 320.536 307.158 322.218 308.399 323.459C309.64 324.699 311.322 325.396 313.077 325.396H721.542C723.297 325.396 724.98 324.699 726.221 323.459C727.461 322.218 728.158 320.536 728.158 318.781C728.158 317.027 727.461 315.344 726.221 314.104C724.98 312.863 723.297 312.166 721.542 312.166Z" fill="white"/>
<path d="M748.285 324.605C751.501 324.605 754.109 321.998 754.109 318.782C754.109 315.566 751.501 312.959 748.285 312.959C745.068 312.959 742.461 315.566 742.461 318.782C742.461 321.998 745.068 324.605 748.285 324.605Z" fill="white"/>
<path d="M765.758 324.605C768.974 324.605 771.582 321.998 771.582 318.782C771.582 315.566 768.974 312.959 765.758 312.959C762.541 312.959 759.934 315.566 759.934 318.782C759.934 321.998 762.541 324.605 765.758 324.605Z" fill="white"/>
<path d="M783.23 324.605C786.447 324.605 789.054 321.998 789.054 318.782C789.054 315.566 786.447 312.959 783.23 312.959C780.014 312.959 777.406 315.566 777.406 318.782C777.406 321.998 780.014 324.605 783.23 324.605Z" fill="white"/>
<path d="M552.311 530.854H321.895V531.72H552.311V530.854Z" fill="#FAB417"/>
<path d="M552.311 506.916H321.895V507.782H552.311V506.916Z" fill="#FAB417"/>
<path d="M552.311 482.984H321.895V483.85H552.311V482.984Z" fill="#FAB417"/>
<path d="M552.311 459.043H321.895V459.909H552.311V459.043Z" fill="#FAB417"/>
<path d="M354.014 472.957H343.023V530.853H354.014V472.957Z" fill="#FFD54F"/>
<path d="M370.346 447.867H359.355V530.852H370.346V447.867Z" fill="#FAB417"/>
<path d="M395.698 494.549H384.707V530.854H395.698V494.549Z" fill="#FFD54F"/>
<path d="M412.034 469.459H401.043V530.854H412.034V469.459Z" fill="#FAB417"/>
<path d="M437.381 465.258H426.391V530.852H437.381V465.258Z" fill="#FFD54F"/>
<path d="M453.713 476.242H442.723V530.852H453.713V476.242Z" fill="#FAB417"/>
<path d="M479.069 447.867H468.078V530.852H479.069V447.867Z" fill="#FFD54F"/>
<path d="M495.401 447.867H484.41V530.852H495.401V447.867Z" fill="#FAB417"/>
<path d="M520.752 442.375H509.762V530.852H520.752V442.375Z" fill="#FFD54F"/>
<path d="M537.088 426.33H526.098V530.854H537.088V426.33Z" fill="#FAB417"/>
<path d="M560.379 544.032H319.895V426.33H323.799V540.132H560.379V544.032Z" fill="#FAB417"/>
<path d="M553.258 342.025H319.895V418.652H553.258V342.025Z" fill="white"/>
<path d="M526.095 355.951H365.766C365.11 355.932 364.457 356.044 363.845 356.282C363.233 356.519 362.675 356.877 362.204 357.335C361.733 357.792 361.358 358.339 361.102 358.943C360.847 359.548 360.715 360.198 360.715 360.854C360.715 361.51 360.847 362.16 361.102 362.765C361.358 363.369 361.733 363.916 362.204 364.373C362.675 364.831 363.233 365.189 363.845 365.426C364.457 365.664 365.11 365.776 365.766 365.757H526.095C527.37 365.719 528.581 365.185 529.469 364.27C530.358 363.355 530.855 362.13 530.855 360.854C530.855 359.578 530.358 358.353 529.469 357.438C528.581 356.523 527.37 355.989 526.095 355.951Z" fill="#FAB417"/>
<path d="M354.719 361.892C355.278 358.449 352.939 355.206 349.496 354.647C346.053 354.088 342.809 356.426 342.25 359.868C341.691 363.311 344.029 366.555 347.473 367.113C350.916 367.672 354.16 365.334 354.719 361.892Z" fill="#FAB417"/>
<path d="M347.521 364.008L344.944 361.431C344.884 361.372 344.836 361.301 344.803 361.223C344.771 361.145 344.754 361.061 344.754 360.976C344.754 360.892 344.771 360.808 344.803 360.73C344.836 360.652 344.884 360.581 344.944 360.522C345.004 360.461 345.075 360.414 345.153 360.381C345.232 360.348 345.316 360.332 345.401 360.332C345.486 360.332 345.57 360.348 345.648 360.381C345.727 360.414 345.798 360.461 345.858 360.522L347.521 362.184L351.085 358.62C351.207 358.5 351.37 358.434 351.54 358.434C351.711 358.434 351.874 358.5 351.995 358.62C352.055 358.68 352.103 358.751 352.136 358.829C352.169 358.908 352.185 358.992 352.185 359.077C352.185 359.162 352.169 359.246 352.136 359.324C352.103 359.403 352.055 359.474 351.995 359.534L347.521 364.008Z" fill="white"/>
<path d="M526.095 375.436H365.766C365.11 375.416 364.457 375.529 363.845 375.766C363.233 376.004 362.675 376.362 362.204 376.819C361.733 377.276 361.358 377.823 361.102 378.428C360.847 379.032 360.715 379.682 360.715 380.338C360.715 380.995 360.847 381.644 361.102 382.249C361.358 382.854 361.733 383.401 362.204 383.858C362.675 384.315 363.233 384.673 363.845 384.911C364.457 385.148 365.11 385.261 365.766 385.241H526.095C527.37 385.203 528.581 384.67 529.469 383.755C530.358 382.839 530.855 381.614 530.855 380.338C530.855 379.063 530.358 377.837 529.469 376.922C528.581 376.007 527.37 375.474 526.095 375.436Z" fill="#FAB417"/>
<path d="M348.468 386.651C351.956 386.651 354.784 383.824 354.784 380.336C354.784 376.849 351.956 374.021 348.468 374.021C344.98 374.021 342.152 376.849 342.152 380.336C342.152 383.824 344.98 386.651 348.468 386.651Z" fill="#FAB417"/>
<path d="M347.521 383.488L344.944 380.911C344.884 380.852 344.836 380.78 344.803 380.702C344.771 380.623 344.754 380.539 344.754 380.454C344.754 380.37 344.771 380.285 344.803 380.207C344.836 380.129 344.884 380.057 344.944 379.997C345.004 379.937 345.075 379.889 345.154 379.857C345.232 379.824 345.316 379.807 345.401 379.807C345.486 379.807 345.57 379.824 345.649 379.857C345.727 379.889 345.798 379.937 345.858 379.997L347.521 381.664L351.086 378.1C351.145 378.04 351.216 377.992 351.294 377.96C351.372 377.927 351.456 377.91 351.541 377.91C351.625 377.91 351.709 377.927 351.787 377.96C351.865 377.992 351.936 378.04 351.996 378.1C352.056 378.16 352.104 378.231 352.136 378.309C352.169 378.388 352.186 378.472 352.186 378.557C352.186 378.642 352.169 378.726 352.136 378.804C352.104 378.883 352.056 378.954 351.996 379.014L347.521 383.488Z" fill="white"/>
<path d="M526.095 394.912H365.766C365.11 394.893 364.457 395.005 363.845 395.243C363.233 395.48 362.675 395.838 362.204 396.295C361.733 396.753 361.358 397.3 361.102 397.904C360.847 398.509 360.715 399.159 360.715 399.815C360.715 400.471 360.847 401.121 361.102 401.726C361.358 402.33 361.733 402.877 362.204 403.334C362.675 403.792 363.233 404.15 363.845 404.387C364.457 404.625 365.11 404.737 365.766 404.718H526.095C527.37 404.68 528.581 404.146 529.469 403.231C530.358 402.316 530.855 401.09 530.855 399.815C530.855 398.539 530.358 397.314 529.469 396.399C528.581 395.483 527.37 394.95 526.095 394.912Z" fill="#FAB417"/>
<path d="M348.468 406.132C351.956 406.132 354.784 403.304 354.784 399.817C354.784 396.329 351.956 393.502 348.468 393.502C344.98 393.502 342.152 396.329 342.152 399.817C342.152 403.304 344.98 406.132 348.468 406.132Z" fill="#FAB417"/>
<path d="M349.387 399.816L351.228 397.971C351.288 397.911 351.336 397.84 351.368 397.762C351.401 397.684 351.418 397.6 351.418 397.515C351.418 397.431 351.402 397.347 351.369 397.269C351.337 397.19 351.29 397.119 351.23 397.059C351.17 396.999 351.099 396.951 351.021 396.919C350.943 396.886 350.859 396.869 350.775 396.869C350.69 396.869 350.606 396.885 350.528 396.918C350.449 396.95 350.378 396.997 350.318 397.057L348.473 398.902L346.627 397.057C346.506 396.936 346.342 396.869 346.171 396.869C346 396.87 345.836 396.938 345.715 397.059C345.594 397.18 345.527 397.344 345.527 397.515C345.528 397.686 345.596 397.85 345.717 397.971L347.563 399.816L345.717 401.661C345.607 401.784 345.548 401.944 345.553 402.109C345.557 402.274 345.625 402.431 345.741 402.547C345.858 402.664 346.015 402.731 346.179 402.736C346.344 402.74 346.504 402.681 346.627 402.571L348.473 400.726L350.318 402.571C350.441 402.681 350.601 402.74 350.766 402.736C350.931 402.731 351.087 402.664 351.204 402.547C351.321 402.431 351.388 402.274 351.392 402.109C351.397 401.944 351.338 401.784 351.228 401.661L349.387 399.816Z" fill="white"/>
<path d="M631.049 492.611H579.621V544.031H631.049V492.611Z" fill="#FAB417"/>
<path d="M617.928 519.615L621.258 518.379V518.213C621.254 517.531 621.206 516.849 621.115 516.172C621.022 515.495 620.886 514.825 620.705 514.166L620.662 514.005L617.123 513.705C616.646 512.486 615.981 511.349 615.151 510.336L616.636 507.107L616.518 506.989C616.032 506.509 615.516 506.06 614.973 505.645C614.429 505.231 613.857 504.855 613.262 504.517L613.119 504.435L610.407 506.724C609.207 506.199 607.932 505.864 606.629 505.732L605.392 502.402H605.227C603.859 502.409 602.498 502.595 601.179 502.955L601.018 502.999L600.718 506.537C599.499 507.014 598.363 507.678 597.349 508.504L594.119 507.024L594.001 507.142C593.521 507.634 593.073 508.158 592.661 508.708C592.249 509.253 591.873 509.822 591.533 510.415L591.451 510.558L593.74 513.274C593.215 514.474 592.881 515.748 592.748 517.051L589.418 518.287V518.453C589.422 519.136 589.47 519.817 589.562 520.494C589.654 521.171 589.791 521.841 589.971 522.5L590.014 522.661L593.553 522.961C594.03 524.179 594.694 525.316 595.52 526.33L594.041 529.559L594.158 529.677C594.643 530.159 595.159 530.608 595.703 531.022C596.248 531.433 596.818 531.809 597.41 532.149L597.558 532.231L600.269 529.942C601.47 530.467 602.744 530.802 604.048 530.934L605.284 534.264H605.449C606.817 534.257 608.178 534.071 609.497 533.711L609.658 533.668L609.954 530.129C611.174 529.653 612.312 528.989 613.328 528.162L616.557 529.642L616.675 529.524C617.155 529.038 617.604 528.522 618.02 527.979C618.432 527.436 618.808 526.866 619.147 526.273L619.23 526.125L616.936 523.414C617.463 522.207 617.798 520.925 617.928 519.615ZM606.398 526.117C604.857 526.327 603.289 526.076 601.891 525.395C600.493 524.714 599.329 523.634 598.545 522.292C597.761 520.949 597.393 519.404 597.487 517.852C597.582 516.3 598.134 514.811 599.075 513.574C600.016 512.336 601.303 511.405 602.773 510.898C604.243 510.392 605.83 510.333 607.334 510.728C608.838 511.124 610.19 511.956 611.221 513.121C612.251 514.285 612.913 515.729 613.123 517.269C613.404 519.334 612.854 521.426 611.593 523.085C610.331 524.744 608.463 525.835 606.398 526.117Z" fill="white"/>
<path d="M608.563 521.871C610.542 520.088 610.701 517.039 608.918 515.06C607.135 513.082 604.085 512.923 602.106 514.706C600.128 516.488 599.969 519.537 601.752 521.516C603.535 523.494 606.584 523.653 608.563 521.871Z" fill="white"/>
<path d="M775.615 492.611H641.586V544.031H775.615V492.611Z" fill="#FAB417"/>
<path d="M767.93 503.613H655.09V504.915H767.93V503.613Z" fill="white"/>
<path d="M767.93 512.986H655.09V514.288H767.93V512.986Z" fill="white"/>
<path d="M767.93 522.357H655.09V523.659H767.93V522.357Z" fill="white"/>
<path d="M767.93 531.727H655.09V533.032H767.93V531.727Z" fill="white"/>
<path d="M775.616 340.963H579.621V472.543H775.616V340.963Z" fill="white"/>
<path d="M678.693 406.753C678.691 401.775 677.497 396.87 675.211 392.448L690.62 383.557C694.443 390.692 696.444 398.661 696.444 406.755C696.444 414.85 694.443 422.819 690.62 429.954L675.211 421.058C677.497 416.636 678.691 411.731 678.693 406.753Z" fill="#FFD54F"/>
<path d="M621.056 423.713C623.752 427.893 627.407 431.37 631.717 433.854C636.027 436.339 640.867 437.759 645.836 437.996V455.788C637.745 455.54 629.841 453.294 622.83 449.248C615.819 445.203 609.919 439.485 605.656 432.604L621.056 423.713Z" fill="#FAB417"/>
<path d="M645.836 375.51C640.868 375.748 636.028 377.169 631.719 379.653C627.41 382.137 623.756 385.614 621.061 389.793L605.656 380.902C609.919 374.022 615.82 368.304 622.831 364.259C629.842 360.214 637.745 357.967 645.836 357.719V375.51Z" fill="#FAB417"/>
<path d="M616.043 406.753C616.044 411.731 617.238 416.637 619.526 421.058L604.117 429.954C600.294 422.819 598.293 414.85 598.293 406.755C598.293 398.661 600.294 390.692 604.117 383.557L619.526 392.448C617.238 396.869 616.044 401.775 616.043 406.753Z" fill="#FAB417"/>
<path d="M673.682 389.793C670.986 385.614 667.332 382.138 663.023 379.653C658.714 377.169 653.875 375.749 648.906 375.51V357.719C656.997 357.967 664.901 360.214 671.912 364.259C678.923 368.305 684.823 374.022 689.086 380.902L673.682 389.793Z" fill="#FFD54F"/>
<path d="M648.906 437.996C653.875 437.758 658.715 436.338 663.024 433.854C667.333 431.37 670.987 427.893 673.682 423.713L689.086 432.604C684.823 439.484 678.923 445.202 671.912 449.247C664.901 453.293 656.997 455.54 648.906 455.788V437.996Z" fill="#FFD54F"/>
<path d="M637.66 402.363H632.777C632.677 403.233 632.398 404.904 632.289 405.509C632.606 405.203 632.983 404.967 633.397 404.817C633.812 404.667 634.253 404.607 634.692 404.639C636.868 404.639 638.252 406.171 638.252 408.556C638.252 410.845 637.038 412.869 634.122 412.869C631.976 412.869 630.418 411.698 630.117 409.679H631.897C632.006 410.194 632.296 410.653 632.715 410.972C633.133 411.292 633.653 411.451 634.178 411.419C635.706 411.419 636.455 410.323 636.455 408.669C636.455 407.202 635.858 406.093 634.278 406.093C632.916 406.093 632.359 406.667 631.967 407.564L630.343 407.289C630.687 405.757 631.144 402.367 631.323 400.861H637.93L637.66 402.363Z" fill="#FAB417"/>
<path d="M648.422 406.666C648.422 409.643 647.552 412.846 644.226 412.846C640.901 412.846 640.039 409.83 640.039 406.753C640.039 403.676 641.049 400.66 644.279 400.66C647.508 400.66 648.422 403.589 648.422 406.666ZM641.893 406.74C641.893 408.964 642.259 411.379 644.253 411.379C646.246 411.379 646.586 409.09 646.586 406.67C646.586 404.399 646.22 402.114 644.3 402.114C642.381 402.114 641.885 404.159 641.885 406.74H641.893Z" fill="#FAB417"/>
<path d="M656.023 403.998C656.023 405.917 654.974 407.384 652.976 407.384C651.087 407.384 649.977 406.078 649.977 404.015C649.977 402.179 651.017 400.643 653.002 400.643C654.839 400.643 656.023 401.887 656.023 403.998ZM651.43 403.998C651.43 405.304 651.979 406.144 653.015 406.144C654.051 406.144 654.595 405.36 654.595 403.998C654.595 402.636 653.99 401.883 652.989 401.883C651.987 401.883 651.426 402.618 651.426 403.998H651.43ZM652.784 412.633L660.362 400.852H661.807L654.233 412.633H652.784ZM664.619 409.477C664.619 411.388 663.579 412.863 661.572 412.863C659.666 412.863 658.578 411.514 658.578 409.495C658.578 407.658 659.605 406.126 661.603 406.126C663.453 406.126 664.619 407.367 664.619 409.482V409.477ZM660.023 409.477C660.023 410.783 660.575 411.627 661.611 411.627C662.647 411.627 663.187 410.839 663.187 409.477C663.187 408.115 662.586 407.362 661.581 407.362C660.658 407.362 660.023 408.137 660.023 409.482V409.477Z" fill="#FAB417"/>
<path d="M722.06 419.766H713.137V428.687H722.06V419.766Z" fill="#FAB417"/>
<path d="M716.947 426.146L715.171 424.375C715.128 424.334 715.094 424.285 715.07 424.231C715.047 424.176 715.035 424.118 715.035 424.059C715.035 424 715.047 423.942 715.07 423.887C715.094 423.833 715.128 423.784 715.171 423.743C715.211 423.701 715.26 423.668 715.314 423.645C715.368 423.622 715.426 423.61 715.484 423.61C715.543 423.61 715.6 423.622 715.654 423.645C715.708 423.668 715.757 423.701 715.797 423.743L716.947 424.892L719.401 422.438C719.442 422.396 719.491 422.362 719.545 422.339C719.598 422.316 719.656 422.305 719.715 422.305C719.773 422.305 719.831 422.316 719.885 422.339C719.939 422.362 719.988 422.396 720.028 422.438C720.07 422.478 720.104 422.527 720.127 422.581C720.15 422.635 720.161 422.693 720.161 422.751C720.161 422.81 720.15 422.868 720.127 422.921C720.104 422.975 720.07 423.024 720.028 423.065L716.947 426.146Z" fill="white"/>
<path d="M756.952 419.766H724.785V421.493H756.952V419.766Z" fill="#FAB417"/>
<path d="M748.978 425.137H724.785V426.864H748.978V425.137Z" fill="#FAB417"/>
<path d="M722.06 437.941H713.137V446.863H722.06V437.941Z" fill="#FAB417"/>
<path d="M716.944 444.326L715.168 442.55C715.126 442.51 715.093 442.461 715.07 442.407C715.047 442.353 715.035 442.295 715.035 442.237C715.035 442.178 715.047 442.121 715.07 442.067C715.093 442.013 715.126 441.964 715.168 441.924C715.209 441.882 715.258 441.848 715.312 441.825C715.365 441.802 715.423 441.79 715.482 441.79C715.54 441.79 715.598 441.802 715.652 441.825C715.706 441.848 715.755 441.882 715.795 441.924L716.944 443.068L719.399 440.614C719.44 440.572 719.489 440.538 719.542 440.515C719.596 440.492 719.654 440.48 719.713 440.48C719.771 440.48 719.829 440.492 719.883 440.515C719.937 440.538 719.985 440.572 720.026 440.614C720.068 440.654 720.102 440.703 720.125 440.757C720.147 440.811 720.159 440.868 720.159 440.927C720.159 440.985 720.147 441.043 720.125 441.097C720.102 441.151 720.068 441.2 720.026 441.24L716.944 444.326Z" fill="white"/>
<path d="M756.952 437.941H724.785V439.669H756.952V437.941Z" fill="#FAB417"/>
<path d="M748.978 443.314H724.785V445.042H748.978V443.314Z" fill="#FAB417"/>
<path d="M722.06 366.645H713.137V375.566H722.06V366.645Z" fill="#FAB417"/>
<path d="M716.944 373.025L715.168 371.249C715.126 371.209 715.093 371.16 715.07 371.106C715.047 371.052 715.035 370.994 715.035 370.936C715.035 370.877 715.047 370.819 715.07 370.766C715.093 370.712 715.126 370.663 715.168 370.622C715.209 370.58 715.258 370.547 715.312 370.524C715.365 370.501 715.423 370.489 715.482 370.489C715.54 370.489 715.598 370.501 715.652 370.524C715.706 370.547 715.755 370.58 715.795 370.622L716.944 371.771L719.399 369.317C719.44 369.275 719.489 369.241 719.542 369.218C719.596 369.195 719.654 369.184 719.713 369.184C719.771 369.184 719.829 369.195 719.883 369.218C719.937 369.241 719.985 369.275 720.026 369.317C720.068 369.357 720.102 369.406 720.125 369.46C720.147 369.514 720.159 369.572 720.159 369.63C720.159 369.689 720.147 369.747 720.125 369.8C720.102 369.854 720.068 369.903 720.026 369.944L716.944 373.025Z" fill="white"/>
<path d="M756.952 366.645H724.785V368.372H756.952V366.645Z" fill="#FAB417"/>
<path d="M748.978 372.016H724.785V373.743H748.978V372.016Z" fill="#FAB417"/>
<path d="M722.06 384.818H713.137V393.74H722.06V384.818Z" fill="#FAB417"/>
<path d="M716.947 391.202L715.171 389.431C715.128 389.391 715.094 389.342 715.07 389.287C715.047 389.233 715.035 389.175 715.035 389.116C715.035 389.057 715.047 388.998 715.07 388.944C715.094 388.89 715.128 388.841 715.171 388.8C715.211 388.758 715.26 388.725 715.314 388.702C715.368 388.679 715.426 388.667 715.484 388.667C715.543 388.667 715.6 388.679 715.654 388.702C715.708 388.725 715.757 388.758 715.797 388.8L716.947 389.949L719.401 387.495C719.442 387.452 719.491 387.419 719.545 387.396C719.598 387.373 719.656 387.361 719.715 387.361C719.773 387.361 719.831 387.373 719.885 387.396C719.939 387.419 719.988 387.452 720.028 387.495C720.07 387.535 720.104 387.584 720.127 387.638C720.15 387.691 720.161 387.749 720.161 387.808C720.161 387.866 720.15 387.924 720.127 387.978C720.104 388.032 720.07 388.081 720.028 388.121L716.947 391.202Z" fill="white"/>
<path d="M756.952 384.818H724.785V386.546H756.952V384.818Z" fill="#FAB417"/>
<path d="M748.978 390.189H724.785V391.917H748.978V390.189Z" fill="#FAB417"/>
<path d="M812.746 533.951H809.777C809.257 533.951 808.742 534.055 808.262 534.256C807.782 534.457 807.347 534.752 806.983 535.123C806.618 535.494 806.331 535.934 806.138 536.417C805.945 536.901 805.851 537.417 805.86 537.938L808.824 709.731C808.838 710.761 809.257 711.744 809.99 712.467C810.723 713.19 811.712 713.596 812.742 713.596C813.772 713.596 814.76 713.19 815.493 712.467C816.227 711.744 816.645 710.761 816.659 709.731L819.628 537.938C819.637 537.417 819.542 536.901 819.35 536.417C819.157 535.934 818.87 535.494 818.505 535.123C818.141 534.752 817.706 534.457 817.226 534.256C816.746 534.055 816.231 533.951 815.71 533.951H812.746Z" fill="#FFD54F"/>
<path d="M853.802 535.292L851.034 536.359C850.548 536.544 850.103 536.825 849.727 537.185C849.35 537.545 849.049 537.976 848.841 538.453C848.634 538.931 848.523 539.445 848.516 539.965C848.509 540.486 848.606 541.003 848.801 541.485L921.105 721.178C921.492 722.131 922.238 722.893 923.183 723.3C924.128 723.707 925.195 723.726 926.154 723.354C927.117 722.986 927.895 722.253 928.322 721.314C928.748 720.376 928.787 719.307 928.43 718.34L861.664 536.537C861.485 536.048 861.21 535.599 860.856 535.217C860.501 534.835 860.074 534.528 859.6 534.313C859.125 534.099 858.612 533.981 858.091 533.966C857.571 533.952 857.052 534.042 856.567 534.23L853.802 535.292Z" fill="#FFD54F"/>
<path d="M769.9 535.293L772.669 536.359C773.155 536.545 773.6 536.826 773.976 537.186C774.353 537.545 774.654 537.977 774.861 538.454C775.069 538.931 775.18 539.445 775.187 539.966C775.194 540.486 775.097 541.003 774.902 541.486L702.603 721.178C702.215 722.131 701.469 722.894 700.524 723.301C699.579 723.708 698.512 723.727 697.554 723.354C696.591 722.986 695.812 722.254 695.386 721.315C694.959 720.377 694.92 719.308 695.277 718.341L762.039 536.516C762.218 536.027 762.493 535.579 762.847 535.198C763.201 534.816 763.627 534.509 764.102 534.294C764.576 534.08 765.088 533.961 765.608 533.947C766.129 533.932 766.647 534.021 767.132 534.209L769.9 535.293Z" fill="#FFD54F"/>
<path d="M903.041 510.994C901.391 518.445 898.989 525.878 894.566 532.097C889.234 539.592 881.338 544.862 873.177 549.07C853.777 559.15 830.389 561.761 806.106 563.763C793.67 564.786 780.995 565.665 768.511 567.297H676.707C675.409 567.298 674.147 566.873 673.114 566.087C672.081 565.3 671.336 564.196 670.992 562.945C676.276 562.009 678.827 561.295 683.885 561.343C700.682 561.474 718.463 561.313 733.841 555.407C738.387 553.694 742.696 551.409 746.665 548.609C762.443 537.389 770.796 518.145 773.765 498.995C776.733 479.846 775.071 460.367 774.849 441.013C774.627 421.659 774.492 404.825 783.014 387.448L913.427 383.439C898.066 422.76 912.095 469.815 903.041 510.994Z" fill="#FFD54F"/>
<path d="M708.639 567.314H676.703C675.128 567.314 673.618 566.689 672.505 565.575C671.391 564.462 670.766 562.952 670.766 561.378C670.766 560.598 670.919 559.826 671.218 559.106C671.516 558.386 671.953 557.732 672.505 557.18C673.056 556.629 673.71 556.192 674.431 555.893C675.151 555.595 675.923 555.442 676.703 555.442H708.639C725.369 555.442 741.413 548.797 753.243 536.969C765.073 525.141 771.719 509.099 771.719 492.371V441.174C771.662 424.656 773.524 408.188 777.268 392.1C777.452 391.319 777.791 390.583 778.267 389.936C778.743 389.29 779.345 388.747 780.037 388.34C780.728 387.934 781.496 387.671 782.292 387.569C783.088 387.468 783.896 387.528 784.668 387.748C786.133 388.158 787.383 389.116 788.16 390.423C788.937 391.73 789.182 393.285 788.842 394.768C785.317 409.991 783.554 425.569 783.589 441.196V492.393C783.583 512.265 775.684 531.32 761.629 545.37C747.574 559.42 728.513 567.313 708.639 567.314Z" fill="#FFD54F"/>
<path d="M914.792 383.714C914.02 383.495 913.212 383.434 912.416 383.537C911.62 383.639 910.853 383.901 910.162 384.308C909.47 384.715 908.868 385.257 908.392 385.903C907.916 386.549 907.576 387.285 907.393 388.066C903.91 403.085 901.839 422.765 901.839 441.161V492.359C901.839 500.641 900.208 508.842 897.038 516.494C893.869 524.146 889.223 531.099 883.366 536.956C877.508 542.812 870.555 547.458 862.902 550.628C855.249 553.797 847.047 555.429 838.763 555.429H676.711C675.136 555.429 673.626 556.054 672.512 557.167C671.399 558.281 670.773 559.79 670.773 561.365C670.772 561.907 670.846 562.446 670.995 562.966C671.339 564.218 672.085 565.322 673.117 566.108C674.15 566.895 675.413 567.32 676.711 567.319H838.763C858.641 567.317 877.705 559.421 891.761 545.367C905.816 531.312 913.713 512.251 913.713 492.376V441.174C913.713 423.879 915.732 404.808 918.966 390.733C919.306 389.251 919.061 387.695 918.284 386.388C917.507 385.081 916.257 384.124 914.792 383.714Z" fill="#FFD54F"/>
<path d="M760.644 465.946C767.241 461.689 769.137 452.891 764.879 446.296C760.621 439.7 751.822 437.804 745.225 442.061C738.629 446.319 736.733 455.116 740.991 461.712C745.248 468.307 754.047 470.203 760.644 465.946Z" fill="#EAA196"/>
<path d="M725.086 491.532L740.76 500.78L765.697 460.602L739.372 449.826L725.086 491.532Z" fill="#EAA196"/>
<path d="M742.033 496.654C742.298 491.637 738.446 487.356 733.429 487.09C728.412 486.824 724.129 490.676 723.864 495.692C723.598 500.709 727.45 504.991 732.467 505.256C737.485 505.522 741.767 501.67 742.033 496.654Z" fill="#EAA196"/>
<path d="M713.839 498.983C714.035 498.931 714.234 498.892 714.435 498.865C715.471 498.735 716.515 498.952 717.56 498.987C718.605 499.022 719.737 498.813 720.442 498.034C720.796 497.586 721.057 497.071 721.208 496.52C721.76 494.902 722.214 493.253 722.566 491.58L713.551 492.081C713 492.069 712.454 492.184 711.954 492.416C707.636 494.822 704.119 500.088 701.32 504.079C700.885 504.702 700.45 505.494 700.772 506.177C700.957 506.508 701.257 506.759 701.616 506.882C702.124 507.041 702.662 507.084 703.189 507.009C703.716 506.933 704.22 506.741 704.663 506.447C705.545 505.859 706.349 505.163 707.057 504.375C708.881 502.569 711.179 499.675 713.839 498.983Z" fill="#EAA196"/>
<path d="M737.71 503.888C741.975 501.278 743.316 495.705 740.706 491.441C738.095 487.177 732.522 485.836 728.257 488.446C723.992 491.056 722.651 496.629 725.262 500.893C727.872 505.157 733.445 506.498 737.71 503.888Z" fill="#EAA196"/>
<path d="M736.512 489.56C738.842 490.656 740.832 492.363 742.271 494.5C743.024 495.582 743.579 496.791 743.907 498.068C744.19 499.318 743.354 500.031 742.336 500.68C740.753 501.703 739.116 502.639 737.43 503.482C735.782 504.321 733.994 504.849 732.155 505.04C729.676 505.227 727.211 504.537 725.19 503.091C724.32 502.455 723.519 501.681 722.605 501.093C721.711 500.447 720.601 500.175 719.51 500.336C718.607 500.582 717.813 501.124 717.255 501.877C716.672 502.599 716.224 503.421 715.693 504.179C715.012 505.239 714.059 506.097 712.933 506.664C712.37 506.941 711.748 507.078 711.12 507.062C710.492 507.046 709.878 506.878 709.329 506.572C709.127 506.461 708.959 506.295 708.846 506.094C708.641 505.658 708.846 505.175 709.072 504.762C710.935 501.141 712.829 496.262 716.55 494.147C718.396 493.103 720.172 492.62 721.774 491.183C723.456 489.667 725.585 488.738 727.841 488.537C732.594 488.294 734.127 488.42 736.512 489.56Z" fill="#EAA196"/>
<path d="M746.804 500.875C746.504 500.626 746.16 500.434 745.79 500.309C744.92 500.039 743.945 500.409 743.105 500.823C742.265 501.236 741.398 501.693 740.467 501.667C739.287 501.606 738.29 500.688 737.807 499.609C737.383 498.499 737.205 497.312 737.285 496.127C737.285 494.386 737.019 492.763 736.88 491.035C736.862 490.951 736.863 490.863 736.884 490.779C736.905 490.695 736.946 490.617 737.002 490.552C737.084 490.509 737.175 490.486 737.268 490.486C737.36 490.486 737.451 490.509 737.533 490.552C740.362 491.47 743.435 492.167 746.082 493.551C747.321 494.257 748.469 495.11 749.503 496.092C751.936 498.268 754.291 500.488 756.65 502.725C756.774 502.828 756.871 502.959 756.933 503.108C756.954 503.231 756.946 503.357 756.91 503.476C756.873 503.595 756.81 503.705 756.724 503.795C756.037 504.666 754.835 504.975 753.721 504.949C752.581 504.918 751.467 504.6 750.482 504.026C749.6 503.458 748.788 502.787 748.062 502.028C747.664 501.621 747.244 501.236 746.804 500.875Z" fill="#EAA196"/>
<path d="M722.099 508.214C724.414 506.908 725.276 504.023 725.925 501.612C726.251 500.385 726.486 499.118 726.913 497.921C727.323 495.623 728.536 493.544 730.334 492.055C730.405 492.007 730.457 491.936 730.482 491.855C730.492 491.797 730.485 491.738 730.46 491.685C730.345 491.478 730.19 491.297 730.003 491.153C729.816 491.008 729.601 490.904 729.372 490.845C728.449 490.471 727.457 489.87 726.438 489.883C725.907 489.922 725.388 490.068 724.914 490.311C724.44 490.555 724.02 490.892 723.679 491.302C722.516 492.7 721.669 494.333 721.198 496.089C720.083 499.854 718.991 503.553 717.533 507.196C717.454 507.33 717.407 507.48 717.394 507.635C717.381 507.791 717.403 507.947 717.459 508.092C717.573 508.257 717.738 508.381 717.929 508.445C718.596 508.725 719.318 508.851 720.04 508.811C720.763 508.771 721.467 508.567 722.099 508.214Z" fill="#EAA196"/>
<path d="M749.453 363.054C748.535 368.04 749.561 373.187 752.32 377.441C755.078 381.694 759.36 384.731 764.287 385.928C764.652 386.015 765.018 386.094 765.388 386.163C769.25 386.873 773.236 386.422 776.841 384.867C780.447 383.313 783.51 380.724 785.644 377.428C787.778 374.132 788.886 370.278 788.829 366.352C788.772 362.426 787.552 358.606 785.323 355.374C783.094 352.141 779.957 349.643 776.308 348.193C772.658 346.744 768.661 346.409 764.822 347.231C760.982 348.053 757.472 349.995 754.737 352.812C752.001 355.628 750.162 359.192 749.453 363.054Z" fill="#EAA196"/>
<path d="M751.292 468.409C758.963 467 764.039 459.641 762.63 451.971C761.221 444.302 753.861 439.226 746.19 440.635C738.519 442.044 733.443 449.403 734.852 457.072C736.261 464.742 743.621 469.817 751.292 468.409Z" fill="#EAA196"/>
<path d="M788.494 370.227C783.32 399.408 776.117 428.193 766.939 456.372L766.817 456.746L738.934 451.624C744.479 422.512 747.984 393.047 749.424 363.447V363.051L788.494 370.227Z" fill="#EAA196"/>
<path d="M748.764 362.833C749.631 358.094 752.135 353.809 755.838 350.727C759.541 347.645 764.209 345.96 769.028 345.967C773.846 345.974 778.509 347.671 782.204 350.764C785.899 353.857 788.39 358.148 789.244 362.889C789.617 365.322 789.647 367.795 789.332 370.236C788.461 378.748 787.445 387.264 786.285 395.782C784.642 407.698 782.611 419.55 780.191 431.339L739.184 426.917C743.084 407.75 746.058 388.432 748.107 368.96L748.764 362.833Z" fill="#FAB417"/>
<path d="M788.218 660.658L782.055 705.924L805.459 709.458L810.974 662.843L788.218 660.658Z" fill="#EAA196"/>
<path d="M771.813 721.547C771.808 722.536 772.16 723.494 772.805 724.244C773.449 724.995 774.342 725.488 775.321 725.634C784.279 727.048 803.022 727.096 812.276 725.634C813.254 725.488 814.146 724.995 814.79 724.244C815.434 723.493 815.785 722.536 815.78 721.547C815.78 721.547 815.732 718.431 815.584 717.63C815.631 717.582 815.584 717.534 815.584 717.482L810.617 708.282L806.869 698.403L802.878 696.453C801.064 695.568 799.042 695.197 797.032 695.382L789.876 695.918C788.288 696.006 786.741 696.452 785.349 697.223L782.429 698.781L778.076 708.761L772.091 717.378C772.039 717.426 772.039 717.574 772.039 717.765C771.899 719.021 771.823 720.283 771.813 721.547Z" fill="black"/>
<path d="M771.813 721.548C771.808 722.537 772.16 723.494 772.805 724.245C773.449 724.996 774.342 725.489 775.321 725.634C784.279 727.049 803.022 727.097 812.276 725.634C813.254 725.489 814.146 724.995 814.79 724.245C815.434 723.494 815.785 722.536 815.78 721.548C815.78 721.548 815.732 718.432 815.584 717.631C815.367 718.377 814.94 719.046 814.353 719.555C813.767 720.065 813.045 720.394 812.276 720.503C803.022 721.961 784.279 721.913 775.321 720.503C774.576 720.4 773.874 720.09 773.297 719.607C772.72 719.125 772.29 718.49 772.056 717.774C771.911 719.027 771.829 720.287 771.813 721.548Z" fill="#FFD54F"/>
<path d="M696.911 668.404L699.579 687.767C699.905 691.209 699.805 693.22 697.141 694.338L682.777 701.389C675.277 704.535 677.523 712.795 685.659 712.795H723.201V701.358L720.019 668.404H696.911Z" fill="#EAA196"/>
<path d="M719.797 700.461C720.354 700.125 721.63 699.355 722.056 699.177C723.506 698.572 725.134 700.047 725.277 701.644L726.953 720.728C726.996 721.099 726.959 721.475 726.844 721.83C726.73 722.186 726.54 722.513 726.289 722.789C726.037 723.064 725.729 723.283 725.386 723.43C725.042 723.577 724.671 723.648 724.298 723.64H653.601C652.562 723.621 651.567 723.222 650.802 722.518C650.038 721.815 649.558 720.856 649.453 719.823C649.437 719.554 649.447 719.285 649.483 719.018C649.555 718.442 649.774 717.895 650.119 717.429C650.465 716.963 650.925 716.594 651.455 716.359L691.77 695.956C694.003 694.799 695.875 695.695 696.506 697.771C697.542 701.187 700.693 703.272 707.697 703.181C712.772 703.115 717.116 702.062 719.797 700.461Z" fill="black"/>
<path d="M726.805 719.018L726.953 720.728C726.996 721.099 726.959 721.475 726.844 721.83C726.73 722.186 726.54 722.512 726.289 722.788C726.037 723.064 725.729 723.283 725.386 723.43C725.042 723.577 724.671 723.648 724.298 723.639H653.601C652.562 723.62 651.567 723.221 650.802 722.518C650.038 721.815 649.558 720.856 649.453 719.823C649.437 719.554 649.447 719.284 649.483 719.018H726.805Z" fill="#FFD54F"/>
<path d="M770.814 491.954L765.481 494.93L689.574 515.337C682.408 517.265 676.227 521.813 672.257 528.082C668.286 534.351 666.816 541.882 668.137 549.183L693.256 688.171H728.266L719.878 561.617L823.682 551.329L824.178 491.962L793.591 479.898L770.814 491.954Z" fill="black"/>
<path d="M804.162 498.463L804.954 492.192L844.96 482.426L870.667 502.032V528.144C870.665 535.408 868.14 542.445 863.523 548.052C858.907 553.66 852.485 557.49 845.356 558.887L840.289 559.879L813.912 691.016L779.395 685.093L788.635 539.525C789.253 529.815 792.018 520.362 796.732 511.85L804.162 498.463Z" fill="black"/>
<path d="M870.43 489.621L863.213 417.812L862.7 350.294C854.669 342.561 835.765 333.578 822.219 330.775L781.935 334.549C772.842 337.626 759.888 345.781 753.555 352.927L758.012 361.888L763.096 430.568L762.735 486.061L759.47 496.506L765.468 494.896C791.188 494.896 803.959 493.778 824.718 493.778C845.68 493.778 852.802 504.784 872.162 504.784L870.43 489.621Z" fill="#FAB417"/>
<path d="M806.82 482.057C799.551 480.895 787.342 482.714 780.025 483.536C772.59 484.376 764.311 492.789 761.656 499.491L759.48 504.962C759.284 505.453 759.136 506.124 759.576 506.42C760.294 506.916 762.805 506.267 763.519 505.984C764.162 505.717 764.751 505.336 765.26 504.862C766.227 504.013 767.073 503.036 767.776 501.959C767.367 502.585 766.745 505.062 767.367 505.645C768.312 506.515 770.536 506.015 771.646 505.688C773.074 505.261 774.344 504.423 775.298 503.277C776.286 502.111 777.078 500.784 778.127 499.674C779.868 497.811 782.24 496.667 784.543 495.561C781.422 497.398 779.986 500.296 778.083 503.395C777.213 504.822 775.933 507.312 778.793 506.746C780.721 506.359 781.779 504.57 783.072 503.264C784.364 501.959 785.409 500.379 787.033 499.617C789.005 498.69 791.155 499.905 793.127 500.296C794.541 500.575 796.069 501.145 797.505 501.167C799.164 501.167 800.217 500.475 802.111 500.353C804.004 500.231 806.08 501.049 808.122 500.971C807.961 498.699 807.081 483.654 806.82 482.057Z" fill="#EAA196"/>
<path d="M768.352 485.364C766.407 485.882 765.214 487.788 764.269 489.564C763.656 490.726 763.059 491.901 762.563 493.115C761.631 495.384 761.033 497.777 760.787 500.218C760.734 500.571 760.745 500.93 760.818 501.28C761.183 502.62 763.177 502.803 764.3 501.963C765.423 501.123 765.897 499.73 766.52 498.481C767.573 496.417 769.096 494.629 770.966 493.26C772.836 491.892 775.002 490.982 777.288 490.604C778.25 490.452 779.373 490.312 779.9 489.481C780.335 488.741 780.079 487.74 779.491 487.079C777.467 484.916 771.012 484.655 768.352 485.364Z" fill="#EAA196"/>
<path d="M815.928 496.908C818.911 492.594 817.832 486.679 813.517 483.696C809.203 480.714 803.287 481.793 800.304 486.107C797.321 490.421 798.4 496.336 802.715 499.318C807.029 502.301 812.945 501.222 815.928 496.908Z" fill="#EAA196"/>
<path d="M763.108 508.509L683.227 514.311C681.34 514.447 679.464 513.918 677.927 512.817C676.389 511.715 675.286 510.109 674.808 508.279L660.497 453.33C660.325 452.667 660.301 451.975 660.427 451.303C660.552 450.63 660.824 449.993 661.222 449.437C661.621 448.881 662.137 448.419 662.733 448.084C663.33 447.749 663.993 447.549 664.675 447.498L738.885 442.123C740.793 441.985 742.69 442.518 744.246 443.631C745.803 444.744 746.921 446.366 747.408 448.216L763.108 508.509Z" fill="#FFD54F"/>
<path d="M804.25 500.18L678.021 509.345C677.836 509.358 677.655 509.407 677.49 509.489C677.324 509.572 677.176 509.687 677.055 509.827C676.933 509.966 676.841 510.129 676.782 510.305C676.724 510.481 676.701 510.666 676.715 510.851L676.898 513.358C676.91 513.542 676.959 513.723 677.042 513.889C677.125 514.054 677.239 514.202 677.379 514.323C677.519 514.445 677.682 514.537 677.857 514.596C678.033 514.654 678.219 514.677 678.404 514.663L804.633 505.498C804.817 505.485 804.997 505.436 805.163 505.354C805.328 505.271 805.476 505.157 805.597 505.018C805.719 504.878 805.811 504.716 805.87 504.541C805.928 504.366 805.952 504.181 805.939 503.996L805.756 501.485C805.743 501.3 805.694 501.12 805.612 500.954C805.529 500.789 805.414 500.641 805.274 500.519C805.134 500.398 804.972 500.306 804.796 500.247C804.62 500.189 804.435 500.166 804.25 500.18Z" fill="#FFD54F"/>
<path d="M759.236 508.786L679.35 514.588C677.464 514.725 675.59 514.197 674.052 513.096C672.515 511.995 671.413 510.39 670.936 508.56L656.646 453.611C656.474 452.948 656.45 452.256 656.575 451.583C656.7 450.91 656.971 450.273 657.37 449.717C657.769 449.16 658.285 448.698 658.882 448.364C659.479 448.029 660.142 447.829 660.825 447.779L734.995 442.391C736.904 442.251 738.802 442.783 740.359 443.896C741.916 445.009 743.034 446.633 743.518 448.484L759.236 508.786Z" fill="#FFD54F"/>
<path d="M711.563 478.17C711.645 479.297 711.391 480.424 710.833 481.406C710.275 482.389 709.438 483.184 708.428 483.691C707.417 484.198 706.279 484.393 705.158 484.253C704.036 484.113 702.982 483.643 702.127 482.903C701.273 482.163 700.658 481.186 700.359 480.096C700.061 479.006 700.092 477.852 700.45 476.78C700.808 475.708 701.476 474.766 702.369 474.074C703.262 473.382 704.341 472.97 705.469 472.891C706.977 472.785 708.465 473.281 709.608 474.27C710.75 475.26 711.453 476.663 711.563 478.17Z" fill="white"/>
<path d="M828.919 373.639C830.408 378.734 833.789 383.067 838.371 385.75C842.953 388.432 848.387 389.261 853.56 388.066C853.939 387.979 854.322 387.879 854.7 387.765C858.647 386.613 862.164 384.317 864.805 381.167C867.447 378.016 869.095 374.153 869.541 370.067C869.986 365.98 869.21 361.853 867.31 358.207C865.41 354.561 862.471 351.561 858.865 349.585C855.26 347.609 851.149 346.747 847.053 347.107C842.957 347.467 839.06 349.034 835.855 351.609C832.65 354.183 830.28 357.65 829.045 361.572C827.811 365.493 827.767 369.692 828.919 373.639Z" fill="#EAA196"/>
<path d="M891.768 460.338C894.715 452.69 890.903 444.101 883.253 441.154C875.604 438.208 867.014 442.019 864.067 449.667C861.12 457.316 864.932 465.904 872.581 468.851C880.23 471.798 888.82 467.986 891.768 460.338Z" fill="#EAA196"/>
<path d="M868.82 361.992C877.439 387.717 888.969 424.849 892.047 450.374L892.112 450.783L863.615 459.095C854.317 430.75 843.204 401.787 829.08 374.017L828.91 373.638L868.82 361.992Z" fill="#EAA196"/>
<path d="M824.022 372.986C820.797 361.54 828.454 349.363 841.129 345.789C845.56 344.481 850.281 344.523 854.688 345.91C859.095 347.298 862.988 349.968 865.87 353.58C867.502 355.634 868.581 358.001 869.5 360.404C872.69 368.781 876.255 376.794 879.128 385.328C883.15 397.266 887.977 416.415 890.776 428.709L849.834 439.916C842.957 420.993 833.524 398.206 826.299 379.026L824.022 372.986Z" fill="#FAB417"/>
<path d="M849.616 440.874C849.665 440.87 849.713 440.861 849.76 440.848L855.419 439.473C855.732 439.396 856.002 439.199 856.17 438.923C856.338 438.648 856.389 438.317 856.313 438.004C856.237 437.69 856.039 437.42 855.764 437.252C855.488 437.085 855.158 437.033 854.844 437.109L850.383 438.193L839.318 392.805C839.23 392.5 839.029 392.24 838.755 392.078C838.482 391.916 838.157 391.865 837.847 391.935C837.691 391.972 837.544 392.04 837.415 392.134C837.286 392.228 837.176 392.347 837.093 392.484C837.01 392.621 836.955 392.773 836.931 392.931C836.908 393.089 836.915 393.251 836.954 393.406L848.311 439.973C848.379 440.259 848.549 440.51 848.79 440.679C849.03 440.848 849.324 440.924 849.616 440.891V440.874Z" fill="black"/>
<path d="M799.269 358.128C795.721 358.266 792.188 357.609 788.927 356.204C785.886 354.839 783.193 352.804 781.05 350.25C778.908 347.697 777.372 344.691 776.557 341.459C776.507 341.301 776.489 341.134 776.506 340.969C776.523 340.804 776.573 340.644 776.654 340.499C776.735 340.354 776.845 340.227 776.976 340.126C777.108 340.024 777.259 339.951 777.42 339.911C777.581 339.87 777.749 339.863 777.913 339.889C778.077 339.915 778.233 339.975 778.373 340.064C778.513 340.153 778.634 340.27 778.727 340.408C778.82 340.545 778.885 340.7 778.916 340.863C779.64 343.736 781.005 346.408 782.908 348.679C784.811 350.949 787.204 352.76 789.906 353.976C793.537 355.577 797.868 356.039 802.19 355.447C810.569 354.302 821.647 348.727 825.285 336.772C825.383 336.465 825.596 336.209 825.88 336.057C826.164 335.905 826.495 335.869 826.805 335.958C827.113 336.053 827.372 336.265 827.525 336.55C827.677 336.834 827.711 337.168 827.619 337.477C823.64 350.533 811.614 356.626 802.516 357.858C801.44 358.007 800.356 358.097 799.269 358.128Z" fill="black"/>
<path d="M812.856 499.719L803.938 482.954C814.079 477.562 828.417 468.532 842.403 459.231C854.303 451.319 865.037 444.783 871.187 441.51L885.186 467.822C860.101 480.104 837.132 489.792 813.013 499.653L812.856 499.719Z" fill="#EAA196"/>
<path d="M892.135 459.17C894.54 451.3 890.109 442.97 882.237 440.565C874.365 438.16 866.034 442.591 863.628 450.462C861.223 458.332 865.655 466.662 873.527 469.067C881.399 471.472 889.73 467.041 892.135 459.17Z" fill="#EAA196"/>
<path d="M817.178 494.262C818.71 489.249 815.887 483.943 810.873 482.411C805.859 480.88 800.552 483.702 799.02 488.715C797.488 493.729 800.311 499.035 805.325 500.567C810.339 502.098 815.646 499.276 817.178 494.262Z" fill="#EAA196"/>
<path d="M768.35 285.627C764.432 285.096 759.644 281.937 758.195 279.199C756.654 276.327 756.532 271.531 758.247 268.319C759.73 265.571 761.829 263.204 764.38 261.404C775.501 253.57 790.932 250.572 804.047 253.836C806.553 254.398 808.88 255.573 810.82 257.256C812.704 258.975 813.949 261.565 813.505 264.076C816.613 264.328 819.164 266.417 820.713 269.107C822.263 271.797 822.85 274.956 823.099 278.059C823.732 286.307 822.207 294.577 818.672 302.056C815.072 309.668 809.892 316.418 803.616 322.272L768.35 285.627Z" fill="black"/>
<path d="M822.234 330.792L801.693 326.953L781.949 334.565L782.093 336.78C782.376 342.838 786.824 347.817 791.691 349.688C795.012 350.959 798.598 351.037 802.037 350.45C811.778 348.796 821.215 341.889 822.234 330.792Z" fill="#EAA196"/>
<path d="M782.137 290.091L786.711 333.32L787.538 341.258L818.212 337.654L814.316 300.949L812.806 286.879L782.137 290.091Z" fill="#EAA196"/>
<path d="M814.293 300.941C813.879 308.616 810.955 315.942 805.969 321.793C800.984 327.643 794.214 331.694 786.701 333.321L782.113 290.109L812.796 286.854L814.293 300.941Z" fill="#CC7972"/>
<path d="M771.483 306.531C774.898 305.336 776.579 301.26 775.237 297.426C773.896 293.592 770.04 291.452 766.625 292.646C763.21 293.84 761.529 297.917 762.87 301.751C764.212 305.585 768.068 307.725 771.483 306.531Z" fill="#CC7972"/>
<path d="M818.515 282.89C819.168 295.511 816.957 306.366 810.75 316.428C808.348 320.338 804.974 323.56 800.957 325.78C793.3 329.958 782.64 330.01 776.424 324.039C770.888 318.734 768.198 310.839 766.848 303.223C765.381 295.182 764.626 287.026 764.594 278.852C764.594 267.293 775.167 257.353 790.884 256.6C808.556 255.773 817.758 268.163 818.515 282.89Z" fill="#EAA196"/>
<path d="M790.71 255.193C774.966 255.976 763.118 266.16 763.135 278.868C763.087 280.396 763.227 280.718 763.227 280.718C774.491 284.017 790.257 282.458 801.235 278.08L801.296 277.967C802.301 281.588 804.991 284.93 807.624 286.149L807.903 291.754L811.82 297.473L819.329 297.099C820.014 292.372 820.221 287.588 819.947 282.82C819.033 265.229 807.598 254.383 790.71 255.193Z" fill="black"/>
<path d="M820.533 298.896C819.58 302.844 815.954 305.355 812.442 304.506C808.929 303.658 806.848 299.767 807.802 295.802C808.755 291.837 812.381 289.339 815.898 290.192C819.415 291.045 821.491 294.949 820.533 298.896Z" fill="#EAA196"/>
<path d="M810.663 298.705H810.628C810.467 298.702 810.313 298.635 810.2 298.52C810.087 298.404 810.023 298.249 810.023 298.087C810.035 297.448 810.162 296.815 810.398 296.22C811.203 294.179 813.214 292.773 815.186 292.934C815.532 292.957 815.873 293.028 816.2 293.143C816.858 293.374 817.44 293.781 817.884 294.318C817.987 294.444 818.036 294.605 818.02 294.766C818.004 294.927 817.925 295.075 817.8 295.178C817.674 295.281 817.513 295.329 817.352 295.313C817.191 295.298 817.043 295.218 816.94 295.093C816.64 294.726 816.246 294.448 815.799 294.288C815.568 294.214 815.328 294.168 815.086 294.153C813.614 294.079 812.134 295.115 811.521 296.673C811.341 297.132 811.242 297.62 811.229 298.113C811.227 298.265 811.168 298.411 811.063 298.521C810.958 298.631 810.815 298.696 810.663 298.705Z" fill="#CC7972"/>
<path d="M814.215 304.281C812.561 303.28 811.264 301.36 810.567 299.002C809.749 296.264 809.618 292.665 810.959 290.158L807.912 291.773C808.052 293.873 808.343 295.96 808.783 298.018C809.553 301.735 809.553 305.73 808.069 309.216C807.111 311.457 804.896 312.98 802.941 312.933C801.607 312.924 800.283 312.693 799.024 312.249C790.375 309.429 778.945 310.226 771.044 313.642C770.636 313.834 770.319 314.179 770.164 314.603C770.008 315.026 770.026 315.494 770.213 315.905C771.633 319.084 773.642 321.967 776.133 324.4C779.615 327.786 784.721 329.483 790.458 329.188C794.225 329.011 797.906 327.995 801.231 326.215C805.323 323.941 808.754 320.641 811.185 316.641C811.451 316.205 811.677 315.77 811.93 315.335C813.581 311.891 814.365 308.097 814.215 304.281Z" fill="black"/>
<path d="M773.97 296.25C773.572 296.189 773.166 296.248 772.801 296.419C772.437 296.59 772.132 296.866 771.924 297.21C771.717 297.555 771.616 297.953 771.635 298.355C771.654 298.757 771.792 299.144 772.031 299.468C772.271 299.791 772.6 300.036 772.979 300.172C773.358 300.308 773.768 300.328 774.159 300.231C774.549 300.133 774.902 299.922 775.172 299.624C775.442 299.326 775.618 298.954 775.676 298.556C775.755 298.024 775.62 297.483 775.3 297.05C774.98 296.618 774.502 296.33 773.97 296.25Z" fill="black"/>
<path d="M790.383 295.458C789.986 295.399 789.581 295.458 789.218 295.629C788.855 295.8 788.551 296.075 788.344 296.419C788.138 296.763 788.038 297.16 788.057 297.561C788.076 297.961 788.214 298.347 788.452 298.67C788.691 298.992 789.02 299.237 789.397 299.372C789.775 299.508 790.184 299.528 790.573 299.432C790.962 299.335 791.314 299.125 791.584 298.828C791.854 298.531 792.029 298.161 792.089 297.764C792.166 297.233 792.031 296.692 791.711 296.26C791.391 295.828 790.914 295.539 790.383 295.458Z" fill="black"/>
<path d="M796.207 289.039C796.089 288.603 795.536 288.403 795.027 288.355C792.676 288.191 790.315 288.461 788.063 289.152C787.266 289.369 785.09 289.779 785.49 290.845C785.751 291.537 787.057 291.981 787.858 291.859C789.64 291.595 791.413 291.286 793.177 290.932C794.196 290.732 796.603 290.418 796.207 289.039Z" fill="black"/>
<path d="M776.56 290.371C774.324 289.635 771.968 289.328 769.618 289.466C768.948 289.434 768.278 289.483 767.62 289.609C767.333 289.669 767.075 289.822 766.884 290.044C766.784 290.22 766.725 290.416 766.71 290.618C766.696 290.82 766.727 291.023 766.802 291.211C766.979 291.509 767.259 291.732 767.589 291.837C768.551 292.199 769.705 292.203 770.723 292.273C771.835 292.354 772.945 292.419 774.053 292.469C775.076 292.512 777.501 292.791 777.509 291.328C777.514 290.889 777.039 290.541 776.56 290.371Z" fill="black"/>
<path d="M781.005 309.821C780.921 309.824 780.837 309.812 780.757 309.786C779.512 309.32 778.668 308.619 778.259 307.71C778.073 307.267 777.98 306.792 777.985 306.312C777.989 305.833 778.091 305.359 778.285 304.92C778.503 304.341 778.851 303.615 779.238 302.809C779.708 301.826 780.244 300.716 780.675 299.598C780.703 299.523 780.746 299.455 780.801 299.398C780.856 299.34 780.921 299.294 780.994 299.261C781.067 299.229 781.145 299.211 781.225 299.209C781.305 299.207 781.384 299.221 781.458 299.249C781.532 299.278 781.6 299.321 781.658 299.376C781.716 299.431 781.762 299.496 781.794 299.569C781.827 299.642 781.844 299.72 781.847 299.8C781.849 299.879 781.835 299.958 781.806 300.033C781.371 301.195 780.818 302.331 780.335 303.332C779.965 304.106 779.63 304.794 779.421 305.347C779.288 305.636 779.214 305.949 779.204 306.268C779.195 306.586 779.249 306.904 779.364 307.201C779.758 307.903 780.414 308.421 781.188 308.641C781.317 308.692 781.425 308.785 781.494 308.905C781.563 309.025 781.589 309.165 781.568 309.302C781.546 309.439 781.479 309.564 781.377 309.658C781.275 309.751 781.144 309.807 781.005 309.816V309.821Z" fill="#CC7972"/>
<path d="M778.727 313.863L790.792 311.748C789.186 317.092 781.16 318.568 778.727 313.863Z" fill="white"/>
<path d="M780.872 566.326L787.645 555.441H719.59L719.881 561.608L780.872 566.326Z" fill="#FFD54F"/>
<path d="M865.097 553.536L859.873 551.795C856.704 553.536 847.337 555.412 841.622 555.412L840.316 559.859L845.831 563.041L865.097 553.536Z" fill="#FFD54F"/>
<path d="M762.268 429.673C762.59 429.673 762.899 429.545 763.126 429.317C763.354 429.089 763.482 428.78 763.482 428.458V391.231C763.492 391.065 763.468 390.899 763.411 390.743C763.355 390.586 763.267 390.443 763.153 390.322C763.039 390.202 762.901 390.105 762.749 390.039C762.596 389.973 762.432 389.939 762.266 389.939C762.099 389.939 761.935 389.973 761.782 390.039C761.63 390.105 761.492 390.202 761.378 390.322C761.265 390.443 761.176 390.586 761.12 390.743C761.063 390.899 761.039 391.065 761.049 391.231V428.458C761.049 428.618 761.081 428.776 761.142 428.924C761.203 429.072 761.293 429.206 761.406 429.319C761.519 429.431 761.654 429.521 761.802 429.581C761.95 429.642 762.108 429.673 762.268 429.673Z" fill="black"/>
<path d="M562.545 532.484H290.242C287.17 532.484 284.68 534.975 284.68 538.046V716.359C284.68 719.431 287.17 721.921 290.242 721.921H562.545C565.618 721.921 568.108 719.431 568.108 716.359V538.046C568.108 534.975 565.618 532.484 562.545 532.484Z" fill="#F4F5F9"/>
<path d="M547.418 510.342H305.38C299.893 510.343 294.632 512.523 290.753 516.402C286.874 520.281 284.695 525.542 284.695 531.027V561.392H568.124V531.027C568.124 528.309 567.588 525.618 566.547 523.107C565.506 520.596 563.981 518.315 562.058 516.394C560.135 514.473 557.852 512.95 555.34 511.911C552.828 510.873 550.136 510.34 547.418 510.342Z" fill="#FFD54F"/>
<path d="M353.535 590.115H312.297V631.347H353.535V590.115Z" fill="#FFD54F"/>
<path d="M416.043 590.115H374.805V631.347H416.043V590.115Z" fill="#FFD54F"/>
<path d="M478.543 590.115H437.305V631.347H478.543V590.115Z" fill="#FFD54F"/>
<path d="M541.043 590.115H499.805V631.347H541.043V590.115Z" fill="#FFD54F"/>
<path d="M353.535 651.961H312.297V693.192H353.535V651.961Z" fill="#FFD54F"/>
<path d="M416.043 651.961H374.805V693.192H416.043V651.961Z" fill="#FFD54F"/>
<path d="M478.543 651.961H437.305V693.192H478.543V651.961Z" fill="#FAB417"/>
<path d="M541.043 651.961H499.805V693.192H541.043V651.961Z" fill="#FFD54F"/>
<path d="M392.562 522.053C390.18 522.054 387.896 523.001 386.212 524.685C384.528 526.37 383.582 528.654 383.582 531.035C383.582 532.214 383.814 533.382 384.266 534.471C384.717 535.561 385.378 536.55 386.212 537.384C387.046 538.218 388.036 538.879 389.125 539.33C390.215 539.781 391.382 540.014 392.562 540.014C393.741 540.014 394.909 539.781 395.998 539.33C397.088 538.879 398.077 538.218 398.911 537.384C399.745 536.55 400.407 535.561 400.858 534.471C401.309 533.382 401.541 532.214 401.541 531.035C401.541 528.654 400.595 526.37 398.912 524.685C397.228 523.001 394.944 522.054 392.562 522.053Z" fill="#FFD54F"/>
<path d="M460.222 522.053C457.84 522.053 455.555 522.999 453.87 524.684C452.185 526.368 451.238 528.653 451.238 531.035C451.239 533.417 452.186 535.701 453.871 537.384C455.556 539.068 457.84 540.014 460.222 540.014C461.402 540.014 462.57 539.782 463.66 539.332C464.75 538.881 465.74 538.219 466.575 537.386C467.409 536.552 468.071 535.562 468.522 534.472C468.974 533.383 469.206 532.215 469.206 531.035C469.206 528.653 468.26 526.368 466.575 524.684C464.89 522.999 462.605 522.053 460.222 522.053Z" fill="#FFD54F"/>
<path d="M392.562 493.742C391.281 493.742 390.052 494.251 389.146 495.157C388.24 496.063 387.73 497.292 387.73 498.573V531.035C387.768 532.292 388.294 533.484 389.196 534.36C390.099 535.235 391.307 535.725 392.564 535.725C393.822 535.725 395.03 535.235 395.932 534.36C396.834 533.484 397.36 532.292 397.398 531.035V498.573C397.398 497.938 397.273 497.31 397.03 496.723C396.787 496.137 396.43 495.604 395.981 495.156C395.532 494.707 394.999 494.351 394.412 494.109C393.826 493.866 393.197 493.742 392.562 493.742Z" fill="#FAB417"/>
<path d="M460.222 493.742C458.941 493.742 457.712 494.251 456.806 495.157C455.9 496.063 455.391 497.292 455.391 498.573V531.035C455.391 532.316 455.9 533.545 456.806 534.451C457.712 535.357 458.941 535.866 460.222 535.866C461.504 535.866 462.732 535.357 463.639 534.451C464.545 533.545 465.054 532.316 465.054 531.035V498.573C465.054 497.292 464.545 496.063 463.639 495.157C462.732 494.251 461.504 493.742 460.222 493.742Z" fill="#FAB417"/>
<path d="M231.027 603.375C229.382 602.481 228.008 601.16 227.048 599.552C226.089 597.944 225.579 596.108 225.573 594.236V593.905C225.579 592.033 226.089 590.197 227.048 588.589C228.008 586.981 229.382 585.661 231.027 584.766C246.095 576.508 258.853 564.609 268.139 550.153C277.424 535.697 282.94 519.146 284.182 502.011L286.333 472.557H141.77L143.915 502.011C145.166 519.139 150.685 535.681 159.97 550.129C169.255 564.578 182.01 576.472 197.071 584.727C198.717 585.621 200.092 586.941 201.052 588.549C202.012 590.157 202.523 591.993 202.529 593.866V594.197C202.523 596.07 202.012 597.906 201.052 599.514C200.092 601.122 198.717 602.442 197.071 603.336C182.013 611.588 169.26 623.478 159.975 637.921C150.69 652.365 145.169 668.902 143.915 686.025L141.77 715.48H286.333L284.182 686.025C282.924 668.908 277.4 652.378 268.116 637.942C258.831 623.506 246.081 611.623 231.027 603.375Z" fill="#FFD54F"/>
<path d="M278.513 686.499C277.597 673.714 274.161 661.236 268.402 649.785C260.284 648.396 251.518 649.001 242.956 648.388L242.39 648.34C229.61 647.173 219.891 636.328 219.891 623.498V590.483C219.894 588.552 220.434 586.659 221.449 585.016C222.464 583.372 223.915 582.043 225.641 581.174C246.424 570.663 262.715 553.006 271.523 531.448C268.349 531.234 265.166 531.217 261.99 531.395C238.977 532.753 218.071 545.4 195.289 548.926C185.372 550.436 175.267 550.196 165.433 548.216C174.706 562.223 187.466 573.576 202.458 581.157C204.185 582.025 205.637 583.355 206.653 584.999C207.669 586.644 208.209 588.538 208.212 590.47V623.52C208.224 629.715 205.923 635.692 201.759 640.281C197.595 644.869 191.868 647.738 185.7 648.327L185.138 648.375C176.581 648.988 167.814 648.375 159.701 649.772C153.947 661.225 150.509 673.701 149.585 686.486L147.879 709.843H280.202L278.513 686.499Z" fill="#FFD54F"/>
<path d="M296.308 697.484H131.792C131.249 697.484 130.809 697.925 130.809 698.468V714.558C130.809 715.101 131.249 715.541 131.792 715.541H296.308C296.852 715.541 297.292 715.101 297.292 714.558V698.468C297.292 697.925 296.852 697.484 296.308 697.484Z" fill="#FAB417"/>
<path d="M131.797 490.613H296.313C296.856 490.613 297.297 490.173 297.297 489.63V473.54C297.297 472.997 296.856 472.557 296.313 472.557H131.797C131.254 472.557 130.813 472.997 130.813 473.54V489.63C130.813 490.173 131.254 490.613 131.797 490.613Z" fill="#FAB417"/>
</svg>
