<svg width="100" height="100" viewBox="0 0 100 100" fill="none" xmlns="http://www.w3.org/2000/svg">
<circle cx="50" cy="50" r="50" fill="#FECD04"/>
<path d="M58.2014 52.9189C58.1482 52.8903 58.0936 52.8631 58.0391 52.8359C58.1345 52.874 58.2014 52.904 58.2014 52.9189Z" fill="#010101"/>
<path d="M34.1956 79.9469C34.7035 78.6441 34.9001 77.2413 34.7698 75.8496C34.5775 74.0811 33.7822 72.4487 33.3416 70.7306C32.4659 67.3134 32.8287 63.6704 33.9609 60.358C35.0522 57.1816 36.6577 54.6663 39.3764 52.5932C41.5193 50.9608 44.4016 49.3705 47.0684 49.3039C47.79 49.2862 48.9127 49.1284 49.5947 49.3746C41.8835 46.8539 37.4544 43.9332 32.7605 39.236C30.4334 36.9057 28.4623 33.762 27.502 30.6155C26.5417 27.469 26.9236 23.7662 29.1307 21.3217C31.5601 18.6323 35.4983 17.8405 38.9344 18.0255C42.5451 18.2201 45.1423 19.1274 48.1747 21.0958C49.8689 22.1936 52.1306 24.0369 53.2518 25.7088C57.9893 32.7431 60.1623 42.577 58.6427 50.9118C58.7177 50.5037 58.1448 45.3711 57.2895 43.2367C55.1834 37.9749 54.4468 33.8844 49.3778 29.6442C47.0998 27.7397 44.4248 25.9536 41.5248 25.1551C38.6602 24.3593 35.2173 24.547 33.2039 26.729C31.4537 28.6335 31.2832 31.6018 32.2285 34.0028C33.1739 36.4038 35.0522 38.3178 37.0547 39.9502C41.2834 43.3959 45.5884 44.8093 50.4732 47.2375C54.9992 49.4875 56.4656 52.5428 56.4656 52.5428C56.0837 52.4245 41.0937 48.8699 36.996 60.0982C35.8625 63.2052 35.6128 66.7326 36.5391 69.981C36.9715 71.4992 38.0095 73.2744 39.686 73.6295C41.1988 73.9492 42.8234 73.3737 44.1657 72.6895C47.5309 70.9686 50.3409 68.2561 52.8849 65.5178C56.0523 62.1169 58.4176 57.4577 57.4601 52.9101C59.3834 54.1453 59.6235 56.8728 59.1788 59.1092C58.3754 63.1603 56.0414 66.7802 53.1577 69.7484C50.274 72.7167 46.8679 75.1082 43.4727 77.4779C38.0559 81.2664 32.5041 86.3283 27 90.5957C28.8061 88.7306 30.9763 85.225 32.4836 83.1138C33.1911 82.1376 33.7667 81.0729 34.1956 79.9469Z" fill="#010101"/>
<path d="M75.6312 23.0811C75.1538 22.4994 74.553 22.0307 73.872 21.7086C73.191 21.3866 72.4468 21.2193 71.6931 21.2188C71.453 21.6269 71.6276 22.171 71.9495 22.5206C72.2715 22.8702 72.7121 23.0783 73.1145 23.33C75.2383 24.6618 76.301 27.2668 76.3474 29.7671C76.3937 32.2674 75.5685 34.6997 74.6218 37.0164C73.9902 38.5645 73.2986 40.0976 72.7544 41.6756L72.738 41.6293C72.7598 41.5341 72.7803 41.4389 72.8007 41.3436C73.9916 35.7962 76.2437 28.1306 70.9838 23.8292C70.4261 23.3799 69.7755 23.0594 69.0787 22.891C68.3819 22.7226 67.6563 22.7104 66.9543 22.8552C66.8083 23.2824 67.077 23.7558 67.4453 24.0183C67.8136 24.2809 68.2638 24.3911 68.688 24.5475C70.9237 25.3787 72.4201 27.6001 72.9494 29.9209C73.4787 32.2416 73.1813 34.6671 72.7503 37.0069C72.5497 38.0951 72.3219 39.1834 72.1323 40.2717C71.9842 40.0005 71.8207 39.738 71.6426 39.4854C71.1614 38.7938 70.5149 38.2328 69.7615 37.853C67.2516 36.611 64.5426 37.4517 62.9411 39.4174C62.5355 39.916 62.2094 40.474 61.974 41.0716C60.8677 43.8752 61.0068 47.2829 61.8089 50.145C62.064 51.0524 62.2918 51.9829 62.7897 52.7827C63.2876 53.5826 64.0842 54.2519 65.0213 54.3621C65.732 54.4451 66.44 54.2043 67.0893 53.9064C69.7097 52.7052 71.8568 50.447 72.7721 47.7196C73.2951 46.1403 73.3957 44.4523 73.064 42.8223C73.326 42.3988 73.5541 41.9553 73.746 41.496C76.1591 36.0356 80.1204 28.6285 75.6312 23.0811ZM71.172 43.7256C71.0983 45.256 69.1259 51.1476 66.7878 49.0309C66.2504 48.548 66.0226 47.8461 65.848 47.1686C65.6276 46.2105 65.4578 45.2415 65.3392 44.2657C65.1441 42.7883 65.8589 41.3083 67.1875 40.6267C67.2489 40.5955 67.3103 40.5655 67.373 40.5383C68.2706 40.1397 69.4001 40.1765 70.1626 40.7941C70.9961 41.4769 71.2238 42.6564 71.172 43.7256Z" fill="#010101"/>
<path d="M36.5028 64.1172C36.3703 65.3244 36.3799 66.5429 36.5315 67.7479C38.5885 67.9289 41.7327 68.8226 44.0448 72.2466C45.1366 71.6722 46.1775 71.0064 47.1563 70.2564C45.8523 68.3002 42.7626 64.9987 36.5028 64.1172Z" fill="black"/>
<path d="M38.1496 58.5898C37.8633 59.1219 37.6157 59.6738 37.4089 60.2413C37.1792 60.8722 36.9879 61.5164 36.8359 62.1703C39.5832 62.3308 45.2837 63.3075 49.3992 68.387C50.3063 67.5586 51.1575 66.7015 51.9541 65.8609C50.2435 63.5265 46.0613 59.2074 38.1496 58.5898Z" fill="black"/>
<path d="M43.2444 53.8242C41.9305 54.427 40.7464 55.2785 39.7578 56.3313C43.048 56.6388 49.6065 57.9529 54.0439 63.4391C54.7255 62.5355 55.3219 61.571 55.8254 60.5579C53.9088 58.6031 49.6543 55.0336 43.2444 53.8242Z" fill="black"/>
<path d="M57.121 53.5274C56.9608 53.3532 56.789 53.19 56.6067 53.039L56.3339 52.9547C54.5102 52.5419 52.6452 52.3384 50.7752 52.348C50.2514 52.348 49.7112 52.3657 49.1602 52.4038C51.6755 53.3642 55.0094 55.1244 56.7786 58.1036C57.2176 56.6198 57.3343 55.0597 57.121 53.5274Z" fill="black"/>
</svg>
