<svg width="344" height="113" viewBox="0 0 344 113" fill="none" xmlns="http://www.w3.org/2000/svg">
<path d="M47.7091 53.3886C47.6278 53.3449 47.5444 53.3033 47.4609 53.2617C47.6069 53.32 47.7091 53.3657 47.7091 53.3886Z" fill="white"/>
<path d="M11.0021 94.7179C11.7788 92.7259 12.0794 90.5809 11.8802 88.453C11.5861 85.749 10.3702 83.253 9.69647 80.626C8.35744 75.4011 8.91225 69.8309 10.6434 64.7661C12.312 59.9093 14.7668 56.0634 18.9237 52.8935C22.2003 50.3976 26.6074 47.9661 30.685 47.8641C31.7883 47.8371 33.5049 47.5958 34.5477 47.9723C22.7572 44.1181 15.9849 39.6524 8.80795 32.4702C5.24973 28.9072 2.23588 24.1003 0.76754 19.2893C-0.700801 14.4783 -0.116801 8.81659 3.25788 5.07886C6.97253 0.966732 12.994 -0.243814 18.2479 0.0390635C23.7688 0.336501 27.74 1.72385 32.3765 4.73359C34.9669 6.41214 38.4251 9.23051 40.1395 11.7868C47.3832 22.5424 50.7057 37.5786 48.3822 50.3227C48.497 49.6987 47.621 41.8509 46.3132 38.5874C43.0929 30.542 41.9666 24.2875 34.2161 17.8042C30.733 14.8922 26.6429 12.1612 22.2087 10.9403C17.8287 9.72346 12.5643 10.0105 9.48581 13.3468C6.80984 16.2588 6.54914 20.7973 7.99454 24.4685C9.43993 28.1397 12.312 31.0662 15.3738 33.5622C21.8395 38.8308 28.422 40.9919 35.8909 44.7046C42.8113 48.1449 45.0535 52.8166 45.0535 52.8166C44.4695 52.6356 21.5496 47.2006 15.2841 64.3688C13.5509 69.1195 13.1692 74.5129 14.5854 79.4799C15.2465 81.8012 16.8338 84.5155 19.3971 85.0584C21.7102 85.5472 24.1943 84.6674 26.2466 83.6211C31.392 80.99 35.6886 76.8425 39.5785 72.6555C44.4215 67.4555 48.0381 60.3316 46.5739 53.3782C49.5148 55.2668 49.8819 59.4372 49.2019 62.8567C47.9735 69.0509 44.4048 74.5857 39.9956 79.1242C35.5864 83.6627 30.3784 87.3194 25.1871 90.9427C16.9047 96.7355 8.41585 104.475 0 111C2.76148 108.148 6.07985 102.788 8.38456 99.5601C9.46634 98.0675 10.3464 96.4395 11.0021 94.7179Z" fill="white"/>
<path d="M74.3604 7.76547C73.6305 6.87612 72.7118 6.15941 71.6705 5.667C70.6293 5.17459 69.4914 4.91876 68.339 4.91797C67.9719 5.54196 68.2389 6.37396 68.7311 6.90852C69.2233 7.44307 69.897 7.76131 70.5123 8.14611C73.7597 10.1824 75.3845 14.1656 75.4554 17.9886C75.5263 21.8116 74.2645 25.5306 72.817 29.0728C71.8513 31.4399 70.7939 33.784 69.9617 36.1968L69.9366 36.1261C69.97 35.9805 70.0013 35.8349 70.0326 35.6893C71.8534 27.2071 75.2969 15.4864 67.2544 8.90946C66.4017 8.22233 65.4069 7.73236 64.3415 7.47484C63.2761 7.21731 62.1667 7.19865 61.0932 7.4202C60.87 8.07331 61.2809 8.79714 61.8441 9.19858C62.4072 9.60002 63.0955 9.7685 63.7441 10.0077C67.1626 11.2786 69.4506 14.6752 70.2599 18.2236C71.0692 21.7721 70.6145 25.4807 69.9554 29.0583C69.6488 30.7223 69.3005 32.3862 69.0106 34.0502C68.7841 33.6356 68.5341 33.2342 68.2618 32.848C67.526 31.7906 66.5374 30.9327 65.3856 30.352C61.5479 28.453 57.4057 29.7384 54.957 32.744C54.3369 33.5064 53.8382 34.3595 53.4783 35.2733C51.7868 39.5601 51.9995 44.7705 53.2259 49.1468C53.6159 50.5341 53.9642 51.9568 54.7255 53.1799C55.4868 54.4029 56.7049 55.4262 58.1377 55.5947C59.2244 55.7216 60.3069 55.3534 61.2997 54.8979C65.3063 53.0613 68.5893 49.6085 69.9888 45.4381C70.7884 43.0234 70.9422 40.4424 70.4351 37.9502C70.8358 37.3027 71.1845 36.6246 71.4779 35.9222C75.1676 27.5732 81.2245 16.2476 74.3604 7.76547ZM67.5422 39.3313C67.4296 41.6713 64.4136 50.6797 60.8387 47.4433C60.017 46.7049 59.6687 45.6316 59.4017 44.5958C59.0647 43.1308 58.805 41.6492 58.6237 40.1571C58.3255 37.8982 59.4184 35.6352 61.4499 34.5931C61.5437 34.5453 61.6376 34.4995 61.7335 34.4579C63.1059 33.8485 64.8329 33.9046 65.9988 34.8489C67.2732 35.8931 67.6215 37.6964 67.5422 39.3313Z" fill="white"/>
<path d="M14.5284 70.5156C14.3258 72.3615 14.3405 74.2246 14.5722 76.0671C17.7174 76.3437 22.525 77.7103 26.0603 82.9456C27.7296 82.0673 29.3211 81.0493 30.8178 79.9026C28.8239 76.9116 24.0997 71.8635 14.5284 70.5156Z" fill="white"/>
<path d="M17.0515 62.0625C16.6138 62.876 16.2353 63.7199 15.919 64.5876C15.5678 65.5523 15.2753 66.5372 15.043 67.537C19.2436 67.7824 27.9598 69.2759 34.2524 77.0425C35.6394 75.7758 36.9409 74.4654 38.1589 73.18C35.5434 69.6108 29.1486 63.0068 17.0515 62.0625Z" fill="white"/>
<path d="M24.835 54.7773C22.8259 55.6991 21.0154 57.0009 19.5039 58.6108C24.5346 59.0808 34.5627 61.0901 41.3476 69.4787C42.3897 68.0971 43.3016 66.6223 44.0715 65.0733C41.1411 62.0843 34.6357 56.6264 24.835 54.7773Z" fill="white"/>
<path d="M46.055 54.3234C45.8102 54.057 45.5474 53.8075 45.2687 53.5767L44.8516 53.4477C42.0632 52.8166 39.2116 52.5053 36.3523 52.52C35.5514 52.52 34.7254 52.5471 33.8828 52.6053C37.7289 54.0738 42.8263 56.7653 45.5315 61.3204C46.2027 59.0517 46.3812 56.6663 46.055 54.3234Z" fill="white"/>
<path d="M106.9 85C110.5 88.1 112.3 91.95 112.3 96.55C112.3 100.8 110.775 104.45 107.725 107.5C104.725 110.5 101.1 112 96.85 112H74.125V59.8H95.05C99.3 59.8 102.925 61.325 105.925 64.375C108.925 67.375 110.425 71 110.425 75.25C110.425 78.85 109.25 82.1 106.9 85ZM95.05 69.325H83.65V81.175H95.05C96.65 81.175 98.025 80.6 99.175 79.45C100.325 78.25 100.9 76.85 100.9 75.25C100.9 73.6 100.325 72.2 99.175 71.05C98.025 69.9 96.65 69.325 95.05 69.325ZM96.85 102.475C98.45 102.475 99.825 101.9 100.975 100.75C102.125 99.6 102.7 98.225 102.7 96.625C102.7 94.975 102.125 93.575 100.975 92.425C99.825 91.275 98.45 90.7 96.85 90.7H83.65V102.475H96.85ZM121.881 80.125C125.431 76.575 129.681 74.8 134.631 74.8C139.631 74.8 143.881 76.575 147.381 80.125C150.931 83.675 152.706 87.925 152.706 92.875V94.825C152.706 95.775 152.606 96.775 152.406 97.825H126.756C127.356 99.475 128.381 100.8 129.831 101.8C131.281 102.8 132.906 103.3 134.706 103.3C136.806 103.3 138.681 102.575 140.331 101.125L149.856 104.575C148.206 107.125 146.031 109.15 143.331 110.65C140.681 112.15 137.806 112.9 134.706 112.9C129.706 112.9 125.431 111.125 121.881 107.575C118.381 104.025 116.631 99.775 116.631 94.825V92.875C116.631 87.925 118.381 83.675 121.881 80.125ZM126.756 89.875H142.581C141.981 88.225 140.956 86.9 139.506 85.9C138.056 84.9 136.431 84.4 134.631 84.4C132.881 84.4 131.281 84.9 129.831 85.9C128.381 86.9 127.356 88.225 126.756 89.875ZM162.091 80.125C165.641 76.575 169.891 74.8 174.841 74.8C179.841 74.8 184.091 76.575 187.591 80.125C191.141 83.675 192.916 87.925 192.916 92.875V94.825C192.916 95.775 192.816 96.775 192.616 97.825H166.966C167.566 99.475 168.591 100.8 170.041 101.8C171.491 102.8 173.116 103.3 174.916 103.3C177.016 103.3 178.891 102.575 180.541 101.125L190.066 104.575C188.416 107.125 186.241 109.15 183.541 110.65C180.891 112.15 178.016 112.9 174.916 112.9C169.916 112.9 165.641 111.125 162.091 107.575C158.591 104.025 156.841 99.775 156.841 94.825V92.875C156.841 87.925 158.591 83.675 162.091 80.125ZM166.966 89.875H182.791C182.191 88.225 181.166 86.9 179.716 85.9C178.266 84.9 176.641 84.4 174.841 84.4C173.091 84.4 171.491 84.9 170.041 85.9C168.591 86.9 167.566 88.225 166.966 89.875ZM215.126 103.3C217.076 103.3 218.801 102.7 220.301 101.5C221.851 100.3 222.851 98.775 223.301 96.925L232.301 100.3C231.101 104 228.926 107.025 225.776 109.375C222.626 111.725 219.076 112.9 215.126 112.9C210.126 112.9 205.851 111.125 202.301 107.575C198.801 104.025 197.051 99.775 197.051 94.825V92.875C197.051 87.925 198.801 83.675 202.301 80.125C205.851 76.575 210.126 74.8 215.126 74.8C219.076 74.8 222.626 75.975 225.776 78.325C228.926 80.675 231.101 83.7 232.301 87.4L223.301 90.775C222.851 88.925 221.851 87.4 220.301 86.2C218.801 84.95 217.076 84.325 215.126 84.325C213.926 84.325 212.801 84.55 211.751 85C210.701 85.45 209.801 86.075 209.051 86.875C208.301 87.625 207.701 88.525 207.251 89.575C206.801 90.625 206.576 91.725 206.576 92.875V94.825C206.576 97.175 207.401 99.175 209.051 100.825C210.751 102.475 212.776 103.3 215.126 103.3ZM241.413 80.125C244.963 76.575 249.213 74.8 254.163 74.8C259.163 74.8 263.413 76.575 266.913 80.125C270.463 83.675 272.238 87.925 272.238 92.875V94.825C272.238 99.775 270.463 104.025 266.913 107.575C263.413 111.125 259.163 112.9 254.163 112.9C249.213 112.9 244.963 111.125 241.413 107.575C237.913 104.025 236.163 99.775 236.163 94.825V92.875C236.163 87.925 237.913 83.675 241.413 80.125ZM262.713 94.825V92.875C262.713 90.525 261.863 88.525 260.163 86.875C258.513 85.175 256.513 84.325 254.163 84.325C251.863 84.325 249.863 85.175 248.163 86.875C246.513 88.525 245.688 90.525 245.688 92.875V94.825C245.688 97.175 246.513 99.175 248.163 100.825C249.863 102.475 251.863 103.3 254.163 103.3C256.513 103.3 258.513 102.475 260.163 100.825C261.863 99.175 262.713 97.175 262.713 94.825ZM295.344 75.7H303.144V85.3H295.344C292.994 85.3 290.969 86.125 289.269 87.775C287.619 89.425 286.794 91.425 286.794 93.775V112H277.269V93.775C277.269 88.825 279.019 84.575 282.519 81.025C286.069 77.475 290.344 75.7 295.344 75.7ZM311.505 80.125C315.055 76.575 319.305 74.8 324.255 74.8C329.255 74.8 333.505 76.575 337.005 80.125C340.555 83.675 342.33 87.925 342.33 92.875V94.825C342.33 95.775 342.23 96.775 342.03 97.825H316.38C316.98 99.475 318.005 100.8 319.455 101.8C320.905 102.8 322.53 103.3 324.33 103.3C326.43 103.3 328.305 102.575 329.955 101.125L339.48 104.575C337.83 107.125 335.655 109.15 332.955 110.65C330.305 112.15 327.43 112.9 324.33 112.9C319.33 112.9 315.055 111.125 311.505 107.575C308.005 104.025 306.255 99.775 306.255 94.825V92.875C306.255 87.925 308.005 83.675 311.505 80.125ZM316.38 89.875H332.205C331.605 88.225 330.58 86.9 329.13 85.9C327.68 84.9 326.055 84.4 324.255 84.4C322.505 84.4 320.905 84.9 319.455 85.9C318.005 86.9 316.98 88.225 316.38 89.875Z" fill="white"/>
</svg>
